<mxfile host="app.diagrams.net" modified="2021-04-01T08:21:03.925Z" agent="5.0 (Macintosh; Intel Mac OS X 10_15_7) AppleWebKit/537.36 (KHTML, like Gecko) Chrome/89.0.4389.90 Safari/537.36" etag="mrXmzpsQFBuTAyTVqCr6" version="14.4.9" type="github">
  <diagram name="Page-1" id="c4acf3e9-155e-7222-9cf6-157b1a14988f">
    <mxGraphModel dx="1617" dy="865" grid="1" gridSize="10" guides="1" tooltips="1" connect="1" arrows="1" fold="1" page="1" pageScale="1" pageWidth="3300" pageHeight="4681" background="#ffffff" math="0" shadow="0">
      <root>
        <mxCell id="0" />
        <mxCell id="1" parent="0" />
        <mxCell id="BXVl0tAN8-Eb9n-rbbXn-1" value="教务&lt;br&gt;" style="text;html=1;strokeColor=none;fillColor=none;align=center;verticalAlign=middle;whiteSpace=wrap;rounded=0;" vertex="1" parent="1">
          <mxGeometry x="40" y="30" width="40" height="20" as="geometry" />
        </mxCell>
        <mxCell id="BXVl0tAN8-Eb9n-rbbXn-2" value="教师" style="shape=table;startSize=30;container=1;collapsible=1;childLayout=tableLayout;fixedRows=1;rowLines=0;fontStyle=1;align=center;resizeLast=1;" vertex="1" parent="1">
          <mxGeometry x="400" y="80" width="180" height="630" as="geometry">
            <mxRectangle x="400" y="110" width="60" height="30" as="alternateBounds" />
          </mxGeometry>
        </mxCell>
        <mxCell id="BXVl0tAN8-Eb9n-rbbXn-3" value="" style="shape=partialRectangle;collapsible=0;dropTarget=0;pointerEvents=0;fillColor=none;top=0;left=0;bottom=1;right=0;points=[[0,0.5],[1,0.5]];portConstraint=eastwest;" vertex="1" parent="BXVl0tAN8-Eb9n-rbbXn-2">
          <mxGeometry y="30" width="180" height="30" as="geometry" />
        </mxCell>
        <mxCell id="BXVl0tAN8-Eb9n-rbbXn-4" value="PK" style="shape=partialRectangle;connectable=0;fillColor=none;top=0;left=0;bottom=0;right=0;fontStyle=1;overflow=hidden;" vertex="1" parent="BXVl0tAN8-Eb9n-rbbXn-3">
          <mxGeometry width="30" height="30" as="geometry" />
        </mxCell>
        <mxCell id="BXVl0tAN8-Eb9n-rbbXn-5" value="UniqueID" style="shape=partialRectangle;connectable=0;fillColor=none;top=0;left=0;bottom=0;right=0;align=left;spacingLeft=6;fontStyle=5;overflow=hidden;" vertex="1" parent="BXVl0tAN8-Eb9n-rbbXn-3">
          <mxGeometry x="30" width="150" height="30" as="geometry" />
        </mxCell>
        <mxCell id="BXVl0tAN8-Eb9n-rbbXn-6" value="" style="shape=partialRectangle;collapsible=0;dropTarget=0;pointerEvents=0;fillColor=none;top=0;left=0;bottom=0;right=0;points=[[0,0.5],[1,0.5]];portConstraint=eastwest;" vertex="1" parent="BXVl0tAN8-Eb9n-rbbXn-2">
          <mxGeometry y="60" width="180" height="30" as="geometry" />
        </mxCell>
        <mxCell id="BXVl0tAN8-Eb9n-rbbXn-7" value="" style="shape=partialRectangle;connectable=0;fillColor=none;top=0;left=0;bottom=0;right=0;editable=1;overflow=hidden;" vertex="1" parent="BXVl0tAN8-Eb9n-rbbXn-6">
          <mxGeometry width="30" height="30" as="geometry" />
        </mxCell>
        <mxCell id="BXVl0tAN8-Eb9n-rbbXn-8" value="头像" style="shape=partialRectangle;connectable=0;fillColor=none;top=0;left=0;bottom=0;right=0;align=left;spacingLeft=6;overflow=hidden;" vertex="1" parent="BXVl0tAN8-Eb9n-rbbXn-6">
          <mxGeometry x="30" width="150" height="30" as="geometry" />
        </mxCell>
        <mxCell id="BXVl0tAN8-Eb9n-rbbXn-9" value="" style="shape=partialRectangle;collapsible=0;dropTarget=0;pointerEvents=0;fillColor=none;top=0;left=0;bottom=0;right=0;points=[[0,0.5],[1,0.5]];portConstraint=eastwest;" vertex="1" parent="BXVl0tAN8-Eb9n-rbbXn-2">
          <mxGeometry y="90" width="180" height="30" as="geometry" />
        </mxCell>
        <mxCell id="BXVl0tAN8-Eb9n-rbbXn-10" value="" style="shape=partialRectangle;connectable=0;fillColor=none;top=0;left=0;bottom=0;right=0;editable=1;overflow=hidden;" vertex="1" parent="BXVl0tAN8-Eb9n-rbbXn-9">
          <mxGeometry width="30" height="30" as="geometry" />
        </mxCell>
        <mxCell id="BXVl0tAN8-Eb9n-rbbXn-11" value="姓名" style="shape=partialRectangle;connectable=0;fillColor=none;top=0;left=0;bottom=0;right=0;align=left;spacingLeft=6;overflow=hidden;" vertex="1" parent="BXVl0tAN8-Eb9n-rbbXn-9">
          <mxGeometry x="30" width="150" height="30" as="geometry" />
        </mxCell>
        <mxCell id="BXVl0tAN8-Eb9n-rbbXn-12" value="" style="shape=partialRectangle;collapsible=0;dropTarget=0;pointerEvents=0;fillColor=none;top=0;left=0;bottom=0;right=0;points=[[0,0.5],[1,0.5]];portConstraint=eastwest;" vertex="1" parent="BXVl0tAN8-Eb9n-rbbXn-2">
          <mxGeometry y="120" width="180" height="30" as="geometry" />
        </mxCell>
        <mxCell id="BXVl0tAN8-Eb9n-rbbXn-13" value="" style="shape=partialRectangle;connectable=0;fillColor=none;top=0;left=0;bottom=0;right=0;editable=1;overflow=hidden;" vertex="1" parent="BXVl0tAN8-Eb9n-rbbXn-12">
          <mxGeometry width="30" height="30" as="geometry" />
        </mxCell>
        <mxCell id="BXVl0tAN8-Eb9n-rbbXn-14" value="职位" style="shape=partialRectangle;connectable=0;fillColor=none;top=0;left=0;bottom=0;right=0;align=left;spacingLeft=6;overflow=hidden;" vertex="1" parent="BXVl0tAN8-Eb9n-rbbXn-12">
          <mxGeometry x="30" width="150" height="30" as="geometry" />
        </mxCell>
        <mxCell id="BXVl0tAN8-Eb9n-rbbXn-15" value="" style="shape=partialRectangle;collapsible=0;dropTarget=0;pointerEvents=0;fillColor=none;top=0;left=0;bottom=0;right=0;points=[[0,0.5],[1,0.5]];portConstraint=eastwest;" vertex="1" parent="BXVl0tAN8-Eb9n-rbbXn-2">
          <mxGeometry y="150" width="180" height="30" as="geometry" />
        </mxCell>
        <mxCell id="BXVl0tAN8-Eb9n-rbbXn-16" value="" style="shape=partialRectangle;connectable=0;fillColor=none;top=0;left=0;bottom=0;right=0;editable=1;overflow=hidden;" vertex="1" parent="BXVl0tAN8-Eb9n-rbbXn-15">
          <mxGeometry width="30" height="30" as="geometry" />
        </mxCell>
        <mxCell id="BXVl0tAN8-Eb9n-rbbXn-17" value="授课定位" style="shape=partialRectangle;connectable=0;fillColor=none;top=0;left=0;bottom=0;right=0;align=left;spacingLeft=6;overflow=hidden;" vertex="1" parent="BXVl0tAN8-Eb9n-rbbXn-15">
          <mxGeometry x="30" width="150" height="30" as="geometry" />
        </mxCell>
        <mxCell id="BXVl0tAN8-Eb9n-rbbXn-18" value="" style="shape=partialRectangle;collapsible=0;dropTarget=0;pointerEvents=0;fillColor=none;top=0;left=0;bottom=0;right=0;points=[[0,0.5],[1,0.5]];portConstraint=eastwest;" vertex="1" parent="BXVl0tAN8-Eb9n-rbbXn-2">
          <mxGeometry y="180" width="180" height="30" as="geometry" />
        </mxCell>
        <mxCell id="BXVl0tAN8-Eb9n-rbbXn-19" value="" style="shape=partialRectangle;connectable=0;fillColor=none;top=0;left=0;bottom=0;right=0;editable=1;overflow=hidden;" vertex="1" parent="BXVl0tAN8-Eb9n-rbbXn-18">
          <mxGeometry width="30" height="30" as="geometry" />
        </mxCell>
        <mxCell id="BXVl0tAN8-Eb9n-rbbXn-20" value="兼职/全职" style="shape=partialRectangle;connectable=0;fillColor=none;top=0;left=0;bottom=0;right=0;align=left;spacingLeft=6;overflow=hidden;" vertex="1" parent="BXVl0tAN8-Eb9n-rbbXn-18">
          <mxGeometry x="30" width="150" height="30" as="geometry" />
        </mxCell>
        <mxCell id="BXVl0tAN8-Eb9n-rbbXn-31" value="" style="shape=partialRectangle;collapsible=0;dropTarget=0;pointerEvents=0;fillColor=none;top=0;left=0;bottom=0;right=0;points=[[0,0.5],[1,0.5]];portConstraint=eastwest;" vertex="1" parent="BXVl0tAN8-Eb9n-rbbXn-2">
          <mxGeometry y="210" width="180" height="30" as="geometry" />
        </mxCell>
        <mxCell id="BXVl0tAN8-Eb9n-rbbXn-32" value="" style="shape=partialRectangle;connectable=0;fillColor=none;top=0;left=0;bottom=0;right=0;editable=1;overflow=hidden;" vertex="1" parent="BXVl0tAN8-Eb9n-rbbXn-31">
          <mxGeometry width="30" height="30" as="geometry" />
        </mxCell>
        <mxCell id="BXVl0tAN8-Eb9n-rbbXn-33" value="性别" style="shape=partialRectangle;connectable=0;fillColor=none;top=0;left=0;bottom=0;right=0;align=left;spacingLeft=6;overflow=hidden;" vertex="1" parent="BXVl0tAN8-Eb9n-rbbXn-31">
          <mxGeometry x="30" width="150" height="30" as="geometry" />
        </mxCell>
        <mxCell id="BXVl0tAN8-Eb9n-rbbXn-34" value="" style="shape=partialRectangle;collapsible=0;dropTarget=0;pointerEvents=0;fillColor=none;top=0;left=0;bottom=0;right=0;points=[[0,0.5],[1,0.5]];portConstraint=eastwest;" vertex="1" parent="BXVl0tAN8-Eb9n-rbbXn-2">
          <mxGeometry y="240" width="180" height="30" as="geometry" />
        </mxCell>
        <mxCell id="BXVl0tAN8-Eb9n-rbbXn-35" value="" style="shape=partialRectangle;connectable=0;fillColor=none;top=0;left=0;bottom=0;right=0;editable=1;overflow=hidden;" vertex="1" parent="BXVl0tAN8-Eb9n-rbbXn-34">
          <mxGeometry width="30" height="30" as="geometry" />
        </mxCell>
        <mxCell id="BXVl0tAN8-Eb9n-rbbXn-36" value="生日" style="shape=partialRectangle;connectable=0;fillColor=none;top=0;left=0;bottom=0;right=0;align=left;spacingLeft=6;overflow=hidden;" vertex="1" parent="BXVl0tAN8-Eb9n-rbbXn-34">
          <mxGeometry x="30" width="150" height="30" as="geometry" />
        </mxCell>
        <mxCell id="BXVl0tAN8-Eb9n-rbbXn-37" value="" style="shape=partialRectangle;collapsible=0;dropTarget=0;pointerEvents=0;fillColor=none;top=0;left=0;bottom=0;right=0;points=[[0,0.5],[1,0.5]];portConstraint=eastwest;" vertex="1" parent="BXVl0tAN8-Eb9n-rbbXn-2">
          <mxGeometry y="270" width="180" height="30" as="geometry" />
        </mxCell>
        <mxCell id="BXVl0tAN8-Eb9n-rbbXn-38" value="" style="shape=partialRectangle;connectable=0;fillColor=none;top=0;left=0;bottom=0;right=0;editable=1;overflow=hidden;" vertex="1" parent="BXVl0tAN8-Eb9n-rbbXn-37">
          <mxGeometry width="30" height="30" as="geometry" />
        </mxCell>
        <mxCell id="BXVl0tAN8-Eb9n-rbbXn-39" value="学历" style="shape=partialRectangle;connectable=0;fillColor=none;top=0;left=0;bottom=0;right=0;align=left;spacingLeft=6;overflow=hidden;" vertex="1" parent="BXVl0tAN8-Eb9n-rbbXn-37">
          <mxGeometry x="30" width="150" height="30" as="geometry" />
        </mxCell>
        <mxCell id="BXVl0tAN8-Eb9n-rbbXn-40" value="" style="shape=partialRectangle;collapsible=0;dropTarget=0;pointerEvents=0;fillColor=none;top=0;left=0;bottom=0;right=0;points=[[0,0.5],[1,0.5]];portConstraint=eastwest;" vertex="1" parent="BXVl0tAN8-Eb9n-rbbXn-2">
          <mxGeometry y="300" width="180" height="30" as="geometry" />
        </mxCell>
        <mxCell id="BXVl0tAN8-Eb9n-rbbXn-41" value="" style="shape=partialRectangle;connectable=0;fillColor=none;top=0;left=0;bottom=0;right=0;editable=1;overflow=hidden;" vertex="1" parent="BXVl0tAN8-Eb9n-rbbXn-40">
          <mxGeometry width="30" height="30" as="geometry" />
        </mxCell>
        <mxCell id="BXVl0tAN8-Eb9n-rbbXn-42" value="手机" style="shape=partialRectangle;connectable=0;fillColor=none;top=0;left=0;bottom=0;right=0;align=left;spacingLeft=6;overflow=hidden;" vertex="1" parent="BXVl0tAN8-Eb9n-rbbXn-40">
          <mxGeometry x="30" width="150" height="30" as="geometry" />
        </mxCell>
        <mxCell id="BXVl0tAN8-Eb9n-rbbXn-43" value="" style="shape=partialRectangle;collapsible=0;dropTarget=0;pointerEvents=0;fillColor=none;top=0;left=0;bottom=0;right=0;points=[[0,0.5],[1,0.5]];portConstraint=eastwest;" vertex="1" parent="BXVl0tAN8-Eb9n-rbbXn-2">
          <mxGeometry y="330" width="180" height="30" as="geometry" />
        </mxCell>
        <mxCell id="BXVl0tAN8-Eb9n-rbbXn-44" value="" style="shape=partialRectangle;connectable=0;fillColor=none;top=0;left=0;bottom=0;right=0;editable=1;overflow=hidden;" vertex="1" parent="BXVl0tAN8-Eb9n-rbbXn-43">
          <mxGeometry width="30" height="30" as="geometry" />
        </mxCell>
        <mxCell id="BXVl0tAN8-Eb9n-rbbXn-45" value="就职归属" style="shape=partialRectangle;connectable=0;fillColor=none;top=0;left=0;bottom=0;right=0;align=left;spacingLeft=6;overflow=hidden;" vertex="1" parent="BXVl0tAN8-Eb9n-rbbXn-43">
          <mxGeometry x="30" width="150" height="30" as="geometry" />
        </mxCell>
        <mxCell id="BXVl0tAN8-Eb9n-rbbXn-46" value="" style="shape=partialRectangle;collapsible=0;dropTarget=0;pointerEvents=0;fillColor=none;top=0;left=0;bottom=0;right=0;points=[[0,0.5],[1,0.5]];portConstraint=eastwest;" vertex="1" parent="BXVl0tAN8-Eb9n-rbbXn-2">
          <mxGeometry y="360" width="180" height="30" as="geometry" />
        </mxCell>
        <mxCell id="BXVl0tAN8-Eb9n-rbbXn-47" value="" style="shape=partialRectangle;connectable=0;fillColor=none;top=0;left=0;bottom=0;right=0;editable=1;overflow=hidden;" vertex="1" parent="BXVl0tAN8-Eb9n-rbbXn-46">
          <mxGeometry width="30" height="30" as="geometry" />
        </mxCell>
        <mxCell id="BXVl0tAN8-Eb9n-rbbXn-48" value="在职状态" style="shape=partialRectangle;connectable=0;fillColor=none;top=0;left=0;bottom=0;right=0;align=left;spacingLeft=6;overflow=hidden;" vertex="1" parent="BXVl0tAN8-Eb9n-rbbXn-46">
          <mxGeometry x="30" width="150" height="30" as="geometry" />
        </mxCell>
        <mxCell id="BXVl0tAN8-Eb9n-rbbXn-49" value="" style="shape=partialRectangle;collapsible=0;dropTarget=0;pointerEvents=0;fillColor=none;top=0;left=0;bottom=0;right=0;points=[[0,0.5],[1,0.5]];portConstraint=eastwest;" vertex="1" parent="BXVl0tAN8-Eb9n-rbbXn-2">
          <mxGeometry y="390" width="180" height="30" as="geometry" />
        </mxCell>
        <mxCell id="BXVl0tAN8-Eb9n-rbbXn-50" value="" style="shape=partialRectangle;connectable=0;fillColor=none;top=0;left=0;bottom=0;right=0;editable=1;overflow=hidden;" vertex="1" parent="BXVl0tAN8-Eb9n-rbbXn-49">
          <mxGeometry width="30" height="30" as="geometry" />
        </mxCell>
        <mxCell id="BXVl0tAN8-Eb9n-rbbXn-51" value="职位" style="shape=partialRectangle;connectable=0;fillColor=none;top=0;left=0;bottom=0;right=0;align=left;spacingLeft=6;overflow=hidden;" vertex="1" parent="BXVl0tAN8-Eb9n-rbbXn-49">
          <mxGeometry x="30" width="150" height="30" as="geometry" />
        </mxCell>
        <mxCell id="BXVl0tAN8-Eb9n-rbbXn-52" value="" style="shape=partialRectangle;collapsible=0;dropTarget=0;pointerEvents=0;fillColor=none;top=0;left=0;bottom=0;right=0;points=[[0,0.5],[1,0.5]];portConstraint=eastwest;" vertex="1" parent="BXVl0tAN8-Eb9n-rbbXn-2">
          <mxGeometry y="420" width="180" height="30" as="geometry" />
        </mxCell>
        <mxCell id="BXVl0tAN8-Eb9n-rbbXn-53" value="" style="shape=partialRectangle;connectable=0;fillColor=none;top=0;left=0;bottom=0;right=0;editable=1;overflow=hidden;" vertex="1" parent="BXVl0tAN8-Eb9n-rbbXn-52">
          <mxGeometry width="30" height="30" as="geometry" />
        </mxCell>
        <mxCell id="BXVl0tAN8-Eb9n-rbbXn-54" value="课时价格" style="shape=partialRectangle;connectable=0;fillColor=none;top=0;left=0;bottom=0;right=0;align=left;spacingLeft=6;overflow=hidden;" vertex="1" parent="BXVl0tAN8-Eb9n-rbbXn-52">
          <mxGeometry x="30" width="150" height="30" as="geometry" />
        </mxCell>
        <mxCell id="BXVl0tAN8-Eb9n-rbbXn-55" value="" style="shape=partialRectangle;collapsible=0;dropTarget=0;pointerEvents=0;fillColor=none;top=0;left=0;bottom=0;right=0;points=[[0,0.5],[1,0.5]];portConstraint=eastwest;" vertex="1" parent="BXVl0tAN8-Eb9n-rbbXn-2">
          <mxGeometry y="450" width="180" height="30" as="geometry" />
        </mxCell>
        <mxCell id="BXVl0tAN8-Eb9n-rbbXn-56" value="" style="shape=partialRectangle;connectable=0;fillColor=none;top=0;left=0;bottom=0;right=0;editable=1;overflow=hidden;" vertex="1" parent="BXVl0tAN8-Eb9n-rbbXn-55">
          <mxGeometry width="30" height="30" as="geometry" />
        </mxCell>
        <mxCell id="BXVl0tAN8-Eb9n-rbbXn-57" value="私教价格" style="shape=partialRectangle;connectable=0;fillColor=none;top=0;left=0;bottom=0;right=0;align=left;spacingLeft=6;overflow=hidden;" vertex="1" parent="BXVl0tAN8-Eb9n-rbbXn-55">
          <mxGeometry x="30" width="150" height="30" as="geometry" />
        </mxCell>
        <mxCell id="BXVl0tAN8-Eb9n-rbbXn-59" value="" style="shape=partialRectangle;collapsible=0;dropTarget=0;pointerEvents=0;fillColor=none;top=0;left=0;bottom=0;right=0;points=[[0,0.5],[1,0.5]];portConstraint=eastwest;" vertex="1" parent="BXVl0tAN8-Eb9n-rbbXn-2">
          <mxGeometry y="480" width="180" height="30" as="geometry" />
        </mxCell>
        <mxCell id="BXVl0tAN8-Eb9n-rbbXn-60" value="" style="shape=partialRectangle;connectable=0;fillColor=none;top=0;left=0;bottom=0;right=0;editable=1;overflow=hidden;" vertex="1" parent="BXVl0tAN8-Eb9n-rbbXn-59">
          <mxGeometry width="30" height="30" as="geometry" />
        </mxCell>
        <mxCell id="BXVl0tAN8-Eb9n-rbbXn-61" value="简介" style="shape=partialRectangle;connectable=0;fillColor=none;top=0;left=0;bottom=0;right=0;align=left;spacingLeft=6;overflow=hidden;" vertex="1" parent="BXVl0tAN8-Eb9n-rbbXn-59">
          <mxGeometry x="30" width="150" height="30" as="geometry" />
        </mxCell>
        <mxCell id="BXVl0tAN8-Eb9n-rbbXn-63" value="" style="shape=partialRectangle;collapsible=0;dropTarget=0;pointerEvents=0;fillColor=none;top=0;left=0;bottom=0;right=0;points=[[0,0.5],[1,0.5]];portConstraint=eastwest;" vertex="1" parent="BXVl0tAN8-Eb9n-rbbXn-2">
          <mxGeometry y="510" width="180" height="30" as="geometry" />
        </mxCell>
        <mxCell id="BXVl0tAN8-Eb9n-rbbXn-64" value="" style="shape=partialRectangle;connectable=0;fillColor=none;top=0;left=0;bottom=0;right=0;editable=1;overflow=hidden;" vertex="1" parent="BXVl0tAN8-Eb9n-rbbXn-63">
          <mxGeometry width="30" height="30" as="geometry" />
        </mxCell>
        <mxCell id="BXVl0tAN8-Eb9n-rbbXn-65" value="课程权限" style="shape=partialRectangle;connectable=0;fillColor=none;top=0;left=0;bottom=0;right=0;align=left;spacingLeft=6;overflow=hidden;" vertex="1" parent="BXVl0tAN8-Eb9n-rbbXn-63">
          <mxGeometry x="30" width="150" height="30" as="geometry" />
        </mxCell>
        <mxCell id="BXVl0tAN8-Eb9n-rbbXn-141" value="" style="shape=partialRectangle;collapsible=0;dropTarget=0;pointerEvents=0;fillColor=none;top=0;left=0;bottom=0;right=0;points=[[0,0.5],[1,0.5]];portConstraint=eastwest;" vertex="1" parent="BXVl0tAN8-Eb9n-rbbXn-2">
          <mxGeometry y="540" width="180" height="30" as="geometry" />
        </mxCell>
        <mxCell id="BXVl0tAN8-Eb9n-rbbXn-142" value="" style="shape=partialRectangle;connectable=0;fillColor=none;top=0;left=0;bottom=0;right=0;editable=1;overflow=hidden;" vertex="1" parent="BXVl0tAN8-Eb9n-rbbXn-141">
          <mxGeometry width="30" height="30" as="geometry" />
        </mxCell>
        <mxCell id="BXVl0tAN8-Eb9n-rbbXn-143" value="课程权限" style="shape=partialRectangle;connectable=0;fillColor=none;top=0;left=0;bottom=0;right=0;align=left;spacingLeft=6;overflow=hidden;" vertex="1" parent="BXVl0tAN8-Eb9n-rbbXn-141">
          <mxGeometry x="30" width="150" height="30" as="geometry" />
        </mxCell>
        <mxCell id="BXVl0tAN8-Eb9n-rbbXn-66" value="" style="shape=partialRectangle;collapsible=0;dropTarget=0;pointerEvents=0;fillColor=none;top=0;left=0;bottom=0;right=0;points=[[0,0.5],[1,0.5]];portConstraint=eastwest;" vertex="1" parent="BXVl0tAN8-Eb9n-rbbXn-2">
          <mxGeometry y="570" width="180" height="30" as="geometry" />
        </mxCell>
        <mxCell id="BXVl0tAN8-Eb9n-rbbXn-67" value="" style="shape=partialRectangle;connectable=0;fillColor=none;top=0;left=0;bottom=0;right=0;editable=1;overflow=hidden;" vertex="1" parent="BXVl0tAN8-Eb9n-rbbXn-66">
          <mxGeometry width="30" height="30" as="geometry" />
        </mxCell>
        <mxCell id="BXVl0tAN8-Eb9n-rbbXn-68" value="授课门店" style="shape=partialRectangle;connectable=0;fillColor=none;top=0;left=0;bottom=0;right=0;align=left;spacingLeft=6;overflow=hidden;" vertex="1" parent="BXVl0tAN8-Eb9n-rbbXn-66">
          <mxGeometry x="30" width="150" height="30" as="geometry" />
        </mxCell>
        <mxCell id="BXVl0tAN8-Eb9n-rbbXn-21" value="" style="shape=partialRectangle;collapsible=0;dropTarget=0;pointerEvents=0;fillColor=none;top=0;left=0;bottom=0;right=0;points=[[0,0.5],[1,0.5]];portConstraint=eastwest;" vertex="1" parent="BXVl0tAN8-Eb9n-rbbXn-2">
          <mxGeometry y="600" width="180" height="30" as="geometry" />
        </mxCell>
        <mxCell id="BXVl0tAN8-Eb9n-rbbXn-22" value="" style="shape=partialRectangle;connectable=0;fillColor=none;top=0;left=0;bottom=0;right=0;editable=1;overflow=hidden;" vertex="1" parent="BXVl0tAN8-Eb9n-rbbXn-21">
          <mxGeometry width="30" height="30" as="geometry" />
        </mxCell>
        <mxCell id="BXVl0tAN8-Eb9n-rbbXn-23" value="" style="shape=partialRectangle;connectable=0;fillColor=none;top=0;left=0;bottom=0;right=0;align=left;spacingLeft=6;overflow=hidden;" vertex="1" parent="BXVl0tAN8-Eb9n-rbbXn-21">
          <mxGeometry x="30" width="150" height="30" as="geometry" />
        </mxCell>
        <mxCell id="BXVl0tAN8-Eb9n-rbbXn-69" value="门店" style="shape=table;startSize=30;container=1;collapsible=1;childLayout=tableLayout;fixedRows=1;rowLines=0;fontStyle=1;align=center;resizeLast=1;" vertex="1" parent="1">
          <mxGeometry x="710" y="585" width="180" height="160" as="geometry" />
        </mxCell>
        <mxCell id="BXVl0tAN8-Eb9n-rbbXn-70" value="" style="shape=partialRectangle;collapsible=0;dropTarget=0;pointerEvents=0;fillColor=none;top=0;left=0;bottom=1;right=0;points=[[0,0.5],[1,0.5]];portConstraint=eastwest;" vertex="1" parent="BXVl0tAN8-Eb9n-rbbXn-69">
          <mxGeometry y="30" width="180" height="30" as="geometry" />
        </mxCell>
        <mxCell id="BXVl0tAN8-Eb9n-rbbXn-71" value="PK" style="shape=partialRectangle;connectable=0;fillColor=none;top=0;left=0;bottom=0;right=0;fontStyle=1;overflow=hidden;" vertex="1" parent="BXVl0tAN8-Eb9n-rbbXn-70">
          <mxGeometry width="30" height="30" as="geometry" />
        </mxCell>
        <mxCell id="BXVl0tAN8-Eb9n-rbbXn-72" value="UniqueID" style="shape=partialRectangle;connectable=0;fillColor=none;top=0;left=0;bottom=0;right=0;align=left;spacingLeft=6;fontStyle=5;overflow=hidden;" vertex="1" parent="BXVl0tAN8-Eb9n-rbbXn-70">
          <mxGeometry x="30" width="150" height="30" as="geometry" />
        </mxCell>
        <mxCell id="BXVl0tAN8-Eb9n-rbbXn-73" value="" style="shape=partialRectangle;collapsible=0;dropTarget=0;pointerEvents=0;fillColor=none;top=0;left=0;bottom=0;right=0;points=[[0,0.5],[1,0.5]];portConstraint=eastwest;" vertex="1" parent="BXVl0tAN8-Eb9n-rbbXn-69">
          <mxGeometry y="60" width="180" height="30" as="geometry" />
        </mxCell>
        <mxCell id="BXVl0tAN8-Eb9n-rbbXn-74" value="" style="shape=partialRectangle;connectable=0;fillColor=none;top=0;left=0;bottom=0;right=0;editable=1;overflow=hidden;" vertex="1" parent="BXVl0tAN8-Eb9n-rbbXn-73">
          <mxGeometry width="30" height="30" as="geometry" />
        </mxCell>
        <mxCell id="BXVl0tAN8-Eb9n-rbbXn-75" value="Row 1" style="shape=partialRectangle;connectable=0;fillColor=none;top=0;left=0;bottom=0;right=0;align=left;spacingLeft=6;overflow=hidden;" vertex="1" parent="BXVl0tAN8-Eb9n-rbbXn-73">
          <mxGeometry x="30" width="150" height="30" as="geometry" />
        </mxCell>
        <mxCell id="BXVl0tAN8-Eb9n-rbbXn-76" value="" style="shape=partialRectangle;collapsible=0;dropTarget=0;pointerEvents=0;fillColor=none;top=0;left=0;bottom=0;right=0;points=[[0,0.5],[1,0.5]];portConstraint=eastwest;" vertex="1" parent="BXVl0tAN8-Eb9n-rbbXn-69">
          <mxGeometry y="90" width="180" height="30" as="geometry" />
        </mxCell>
        <mxCell id="BXVl0tAN8-Eb9n-rbbXn-77" value="" style="shape=partialRectangle;connectable=0;fillColor=none;top=0;left=0;bottom=0;right=0;editable=1;overflow=hidden;" vertex="1" parent="BXVl0tAN8-Eb9n-rbbXn-76">
          <mxGeometry width="30" height="30" as="geometry" />
        </mxCell>
        <mxCell id="BXVl0tAN8-Eb9n-rbbXn-78" value="Row 2" style="shape=partialRectangle;connectable=0;fillColor=none;top=0;left=0;bottom=0;right=0;align=left;spacingLeft=6;overflow=hidden;" vertex="1" parent="BXVl0tAN8-Eb9n-rbbXn-76">
          <mxGeometry x="30" width="150" height="30" as="geometry" />
        </mxCell>
        <mxCell id="BXVl0tAN8-Eb9n-rbbXn-79" value="" style="shape=partialRectangle;collapsible=0;dropTarget=0;pointerEvents=0;fillColor=none;top=0;left=0;bottom=0;right=0;points=[[0,0.5],[1,0.5]];portConstraint=eastwest;" vertex="1" parent="BXVl0tAN8-Eb9n-rbbXn-69">
          <mxGeometry y="120" width="180" height="30" as="geometry" />
        </mxCell>
        <mxCell id="BXVl0tAN8-Eb9n-rbbXn-80" value="" style="shape=partialRectangle;connectable=0;fillColor=none;top=0;left=0;bottom=0;right=0;editable=1;overflow=hidden;" vertex="1" parent="BXVl0tAN8-Eb9n-rbbXn-79">
          <mxGeometry width="30" height="30" as="geometry" />
        </mxCell>
        <mxCell id="BXVl0tAN8-Eb9n-rbbXn-81" value="Row 3" style="shape=partialRectangle;connectable=0;fillColor=none;top=0;left=0;bottom=0;right=0;align=left;spacingLeft=6;overflow=hidden;" vertex="1" parent="BXVl0tAN8-Eb9n-rbbXn-79">
          <mxGeometry x="30" width="150" height="30" as="geometry" />
        </mxCell>
        <mxCell id="BXVl0tAN8-Eb9n-rbbXn-82" value="课程" style="shape=table;startSize=30;container=1;collapsible=1;childLayout=tableLayout;fixedRows=1;rowLines=0;fontStyle=1;align=center;resizeLast=1;" vertex="1" parent="1">
          <mxGeometry x="140" y="585" width="180" height="430" as="geometry" />
        </mxCell>
        <mxCell id="BXVl0tAN8-Eb9n-rbbXn-83" value="" style="shape=partialRectangle;collapsible=0;dropTarget=0;pointerEvents=0;fillColor=none;top=0;left=0;bottom=1;right=0;points=[[0,0.5],[1,0.5]];portConstraint=eastwest;" vertex="1" parent="BXVl0tAN8-Eb9n-rbbXn-82">
          <mxGeometry y="30" width="180" height="30" as="geometry" />
        </mxCell>
        <mxCell id="BXVl0tAN8-Eb9n-rbbXn-84" value="PK" style="shape=partialRectangle;connectable=0;fillColor=none;top=0;left=0;bottom=0;right=0;fontStyle=1;overflow=hidden;" vertex="1" parent="BXVl0tAN8-Eb9n-rbbXn-83">
          <mxGeometry width="30" height="30" as="geometry" />
        </mxCell>
        <mxCell id="BXVl0tAN8-Eb9n-rbbXn-85" value="UniqueID" style="shape=partialRectangle;connectable=0;fillColor=none;top=0;left=0;bottom=0;right=0;align=left;spacingLeft=6;fontStyle=5;overflow=hidden;" vertex="1" parent="BXVl0tAN8-Eb9n-rbbXn-83">
          <mxGeometry x="30" width="150" height="30" as="geometry" />
        </mxCell>
        <mxCell id="BXVl0tAN8-Eb9n-rbbXn-237" value="" style="shape=partialRectangle;collapsible=0;dropTarget=0;pointerEvents=0;fillColor=none;top=0;left=0;bottom=0;right=0;points=[[0,0.5],[1,0.5]];portConstraint=eastwest;" vertex="1" parent="BXVl0tAN8-Eb9n-rbbXn-82">
          <mxGeometry y="60" width="180" height="30" as="geometry" />
        </mxCell>
        <mxCell id="BXVl0tAN8-Eb9n-rbbXn-238" value="" style="shape=partialRectangle;connectable=0;fillColor=none;top=0;left=0;bottom=0;right=0;editable=1;overflow=hidden;" vertex="1" parent="BXVl0tAN8-Eb9n-rbbXn-237">
          <mxGeometry width="30" height="30" as="geometry" />
        </mxCell>
        <mxCell id="BXVl0tAN8-Eb9n-rbbXn-239" value="代码" style="shape=partialRectangle;connectable=0;fillColor=none;top=0;left=0;bottom=0;right=0;align=left;spacingLeft=6;overflow=hidden;" vertex="1" parent="BXVl0tAN8-Eb9n-rbbXn-237">
          <mxGeometry x="30" width="150" height="30" as="geometry" />
        </mxCell>
        <mxCell id="BXVl0tAN8-Eb9n-rbbXn-86" value="" style="shape=partialRectangle;collapsible=0;dropTarget=0;pointerEvents=0;fillColor=none;top=0;left=0;bottom=0;right=0;points=[[0,0.5],[1,0.5]];portConstraint=eastwest;" vertex="1" parent="BXVl0tAN8-Eb9n-rbbXn-82">
          <mxGeometry y="90" width="180" height="30" as="geometry" />
        </mxCell>
        <mxCell id="BXVl0tAN8-Eb9n-rbbXn-87" value="" style="shape=partialRectangle;connectable=0;fillColor=none;top=0;left=0;bottom=0;right=0;editable=1;overflow=hidden;" vertex="1" parent="BXVl0tAN8-Eb9n-rbbXn-86">
          <mxGeometry width="30" height="30" as="geometry" />
        </mxCell>
        <mxCell id="BXVl0tAN8-Eb9n-rbbXn-88" value="封面" style="shape=partialRectangle;connectable=0;fillColor=none;top=0;left=0;bottom=0;right=0;align=left;spacingLeft=6;overflow=hidden;" vertex="1" parent="BXVl0tAN8-Eb9n-rbbXn-86">
          <mxGeometry x="30" width="150" height="30" as="geometry" />
        </mxCell>
        <mxCell id="BXVl0tAN8-Eb9n-rbbXn-89" value="" style="shape=partialRectangle;collapsible=0;dropTarget=0;pointerEvents=0;fillColor=none;top=0;left=0;bottom=0;right=0;points=[[0,0.5],[1,0.5]];portConstraint=eastwest;" vertex="1" parent="BXVl0tAN8-Eb9n-rbbXn-82">
          <mxGeometry y="120" width="180" height="30" as="geometry" />
        </mxCell>
        <mxCell id="BXVl0tAN8-Eb9n-rbbXn-90" value="" style="shape=partialRectangle;connectable=0;fillColor=none;top=0;left=0;bottom=0;right=0;editable=1;overflow=hidden;" vertex="1" parent="BXVl0tAN8-Eb9n-rbbXn-89">
          <mxGeometry width="30" height="30" as="geometry" />
        </mxCell>
        <mxCell id="BXVl0tAN8-Eb9n-rbbXn-91" value="名称" style="shape=partialRectangle;connectable=0;fillColor=none;top=0;left=0;bottom=0;right=0;align=left;spacingLeft=6;overflow=hidden;" vertex="1" parent="BXVl0tAN8-Eb9n-rbbXn-89">
          <mxGeometry x="30" width="150" height="30" as="geometry" />
        </mxCell>
        <mxCell id="BXVl0tAN8-Eb9n-rbbXn-92" value="" style="shape=partialRectangle;collapsible=0;dropTarget=0;pointerEvents=0;fillColor=none;top=0;left=0;bottom=0;right=0;points=[[0,0.5],[1,0.5]];portConstraint=eastwest;" vertex="1" parent="BXVl0tAN8-Eb9n-rbbXn-82">
          <mxGeometry y="150" width="180" height="30" as="geometry" />
        </mxCell>
        <mxCell id="BXVl0tAN8-Eb9n-rbbXn-93" value="" style="shape=partialRectangle;connectable=0;fillColor=none;top=0;left=0;bottom=0;right=0;editable=1;overflow=hidden;" vertex="1" parent="BXVl0tAN8-Eb9n-rbbXn-92">
          <mxGeometry width="30" height="30" as="geometry" />
        </mxCell>
        <mxCell id="BXVl0tAN8-Eb9n-rbbXn-94" value="类型" style="shape=partialRectangle;connectable=0;fillColor=none;top=0;left=0;bottom=0;right=0;align=left;spacingLeft=6;overflow=hidden;" vertex="1" parent="BXVl0tAN8-Eb9n-rbbXn-92">
          <mxGeometry x="30" width="150" height="30" as="geometry" />
        </mxCell>
        <mxCell id="BXVl0tAN8-Eb9n-rbbXn-146" value="" style="shape=partialRectangle;collapsible=0;dropTarget=0;pointerEvents=0;fillColor=none;top=0;left=0;bottom=0;right=0;points=[[0,0.5],[1,0.5]];portConstraint=eastwest;" vertex="1" parent="BXVl0tAN8-Eb9n-rbbXn-82">
          <mxGeometry y="180" width="180" height="30" as="geometry" />
        </mxCell>
        <mxCell id="BXVl0tAN8-Eb9n-rbbXn-147" value="" style="shape=partialRectangle;connectable=0;fillColor=none;top=0;left=0;bottom=0;right=0;editable=1;overflow=hidden;" vertex="1" parent="BXVl0tAN8-Eb9n-rbbXn-146">
          <mxGeometry width="30" height="30" as="geometry" />
        </mxCell>
        <mxCell id="BXVl0tAN8-Eb9n-rbbXn-148" value="适用阶段" style="shape=partialRectangle;connectable=0;fillColor=none;top=0;left=0;bottom=0;right=0;align=left;spacingLeft=6;overflow=hidden;" vertex="1" parent="BXVl0tAN8-Eb9n-rbbXn-146">
          <mxGeometry x="30" width="150" height="30" as="geometry" />
        </mxCell>
        <mxCell id="BXVl0tAN8-Eb9n-rbbXn-150" value="" style="shape=partialRectangle;collapsible=0;dropTarget=0;pointerEvents=0;fillColor=none;top=0;left=0;bottom=0;right=0;points=[[0,0.5],[1,0.5]];portConstraint=eastwest;" vertex="1" parent="BXVl0tAN8-Eb9n-rbbXn-82">
          <mxGeometry y="210" width="180" height="30" as="geometry" />
        </mxCell>
        <mxCell id="BXVl0tAN8-Eb9n-rbbXn-151" value="" style="shape=partialRectangle;connectable=0;fillColor=none;top=0;left=0;bottom=0;right=0;editable=1;overflow=hidden;" vertex="1" parent="BXVl0tAN8-Eb9n-rbbXn-150">
          <mxGeometry width="30" height="30" as="geometry" />
        </mxCell>
        <mxCell id="BXVl0tAN8-Eb9n-rbbXn-152" value="课程强度" style="shape=partialRectangle;connectable=0;fillColor=none;top=0;left=0;bottom=0;right=0;align=left;spacingLeft=6;overflow=hidden;" vertex="1" parent="BXVl0tAN8-Eb9n-rbbXn-150">
          <mxGeometry x="30" width="150" height="30" as="geometry" />
        </mxCell>
        <mxCell id="BXVl0tAN8-Eb9n-rbbXn-157" value="" style="shape=partialRectangle;collapsible=0;dropTarget=0;pointerEvents=0;fillColor=none;top=0;left=0;bottom=0;right=0;points=[[0,0.5],[1,0.5]];portConstraint=eastwest;" vertex="1" parent="BXVl0tAN8-Eb9n-rbbXn-82">
          <mxGeometry y="240" width="180" height="30" as="geometry" />
        </mxCell>
        <mxCell id="BXVl0tAN8-Eb9n-rbbXn-158" value="" style="shape=partialRectangle;connectable=0;fillColor=none;top=0;left=0;bottom=0;right=0;editable=1;overflow=hidden;" vertex="1" parent="BXVl0tAN8-Eb9n-rbbXn-157">
          <mxGeometry width="30" height="30" as="geometry" />
        </mxCell>
        <mxCell id="BXVl0tAN8-Eb9n-rbbXn-159" value="状态（使用中，下架，草稿）" style="shape=partialRectangle;connectable=0;fillColor=none;top=0;left=0;bottom=0;right=0;align=left;spacingLeft=6;overflow=hidden;" vertex="1" parent="BXVl0tAN8-Eb9n-rbbXn-157">
          <mxGeometry x="30" width="150" height="30" as="geometry" />
        </mxCell>
        <mxCell id="BXVl0tAN8-Eb9n-rbbXn-161" value="" style="shape=partialRectangle;collapsible=0;dropTarget=0;pointerEvents=0;fillColor=none;top=0;left=0;bottom=0;right=0;points=[[0,0.5],[1,0.5]];portConstraint=eastwest;" vertex="1" parent="BXVl0tAN8-Eb9n-rbbXn-82">
          <mxGeometry y="270" width="180" height="30" as="geometry" />
        </mxCell>
        <mxCell id="BXVl0tAN8-Eb9n-rbbXn-162" value="" style="shape=partialRectangle;connectable=0;fillColor=none;top=0;left=0;bottom=0;right=0;editable=1;overflow=hidden;" vertex="1" parent="BXVl0tAN8-Eb9n-rbbXn-161">
          <mxGeometry width="30" height="30" as="geometry" />
        </mxCell>
        <mxCell id="BXVl0tAN8-Eb9n-rbbXn-163" value="更新时间" style="shape=partialRectangle;connectable=0;fillColor=none;top=0;left=0;bottom=0;right=0;align=left;spacingLeft=6;overflow=hidden;" vertex="1" parent="BXVl0tAN8-Eb9n-rbbXn-161">
          <mxGeometry x="30" width="150" height="30" as="geometry" />
        </mxCell>
        <mxCell id="BXVl0tAN8-Eb9n-rbbXn-164" value="" style="shape=partialRectangle;collapsible=0;dropTarget=0;pointerEvents=0;fillColor=none;top=0;left=0;bottom=0;right=0;points=[[0,0.5],[1,0.5]];portConstraint=eastwest;" vertex="1" parent="BXVl0tAN8-Eb9n-rbbXn-82">
          <mxGeometry y="300" width="180" height="30" as="geometry" />
        </mxCell>
        <mxCell id="BXVl0tAN8-Eb9n-rbbXn-165" value="" style="shape=partialRectangle;connectable=0;fillColor=none;top=0;left=0;bottom=0;right=0;editable=1;overflow=hidden;" vertex="1" parent="BXVl0tAN8-Eb9n-rbbXn-164">
          <mxGeometry width="30" height="30" as="geometry" />
        </mxCell>
        <mxCell id="BXVl0tAN8-Eb9n-rbbXn-166" value="时长" style="shape=partialRectangle;connectable=0;fillColor=none;top=0;left=0;bottom=0;right=0;align=left;spacingLeft=6;overflow=hidden;" vertex="1" parent="BXVl0tAN8-Eb9n-rbbXn-164">
          <mxGeometry x="30" width="150" height="30" as="geometry" />
        </mxCell>
        <mxCell id="BXVl0tAN8-Eb9n-rbbXn-167" value="" style="shape=partialRectangle;collapsible=0;dropTarget=0;pointerEvents=0;fillColor=none;top=0;left=0;bottom=0;right=0;points=[[0,0.5],[1,0.5]];portConstraint=eastwest;" vertex="1" parent="BXVl0tAN8-Eb9n-rbbXn-82">
          <mxGeometry y="330" width="180" height="30" as="geometry" />
        </mxCell>
        <mxCell id="BXVl0tAN8-Eb9n-rbbXn-168" value="" style="shape=partialRectangle;connectable=0;fillColor=none;top=0;left=0;bottom=0;right=0;editable=1;overflow=hidden;" vertex="1" parent="BXVl0tAN8-Eb9n-rbbXn-167">
          <mxGeometry width="30" height="30" as="geometry" />
        </mxCell>
        <mxCell id="BXVl0tAN8-Eb9n-rbbXn-169" value="课程简介" style="shape=partialRectangle;connectable=0;fillColor=none;top=0;left=0;bottom=0;right=0;align=left;spacingLeft=6;overflow=hidden;" vertex="1" parent="BXVl0tAN8-Eb9n-rbbXn-167">
          <mxGeometry x="30" width="150" height="30" as="geometry" />
        </mxCell>
        <mxCell id="BXVl0tAN8-Eb9n-rbbXn-170" value="" style="shape=partialRectangle;collapsible=0;dropTarget=0;pointerEvents=0;fillColor=none;top=0;left=0;bottom=0;right=0;points=[[0,0.5],[1,0.5]];portConstraint=eastwest;" vertex="1" parent="BXVl0tAN8-Eb9n-rbbXn-82">
          <mxGeometry y="360" width="180" height="30" as="geometry" />
        </mxCell>
        <mxCell id="BXVl0tAN8-Eb9n-rbbXn-171" value="" style="shape=partialRectangle;connectable=0;fillColor=none;top=0;left=0;bottom=0;right=0;editable=1;overflow=hidden;" vertex="1" parent="BXVl0tAN8-Eb9n-rbbXn-170">
          <mxGeometry width="30" height="30" as="geometry" />
        </mxCell>
        <mxCell id="BXVl0tAN8-Eb9n-rbbXn-172" value="课件" style="shape=partialRectangle;connectable=0;fillColor=none;top=0;left=0;bottom=0;right=0;align=left;spacingLeft=6;overflow=hidden;" vertex="1" parent="BXVl0tAN8-Eb9n-rbbXn-170">
          <mxGeometry x="30" width="150" height="30" as="geometry" />
        </mxCell>
        <mxCell id="BXVl0tAN8-Eb9n-rbbXn-191" value="" style="shape=partialRectangle;collapsible=0;dropTarget=0;pointerEvents=0;fillColor=none;top=0;left=0;bottom=0;right=0;points=[[0,0.5],[1,0.5]];portConstraint=eastwest;" vertex="1" parent="BXVl0tAN8-Eb9n-rbbXn-82">
          <mxGeometry y="390" width="180" height="30" as="geometry" />
        </mxCell>
        <mxCell id="BXVl0tAN8-Eb9n-rbbXn-192" value="" style="shape=partialRectangle;connectable=0;fillColor=none;top=0;left=0;bottom=0;right=0;editable=1;overflow=hidden;" vertex="1" parent="BXVl0tAN8-Eb9n-rbbXn-191">
          <mxGeometry width="30" height="30" as="geometry" />
        </mxCell>
        <mxCell id="BXVl0tAN8-Eb9n-rbbXn-193" value="教学资料" style="shape=partialRectangle;connectable=0;fillColor=none;top=0;left=0;bottom=0;right=0;align=left;spacingLeft=6;overflow=hidden;" vertex="1" parent="BXVl0tAN8-Eb9n-rbbXn-191">
          <mxGeometry x="30" width="150" height="30" as="geometry" />
        </mxCell>
        <mxCell id="BXVl0tAN8-Eb9n-rbbXn-95" value="" style="edgeStyle=entityRelationEdgeStyle;fontSize=12;html=1;endArrow=ERzeroToMany;endFill=1;" edge="1" parent="1" source="BXVl0tAN8-Eb9n-rbbXn-66" target="BXVl0tAN8-Eb9n-rbbXn-69">
          <mxGeometry width="100" height="100" relative="1" as="geometry">
            <mxPoint x="560" y="310" as="sourcePoint" />
            <mxPoint x="660" y="210" as="targetPoint" />
          </mxGeometry>
        </mxCell>
        <mxCell id="BXVl0tAN8-Eb9n-rbbXn-97" value="职位" style="shape=table;startSize=30;container=1;collapsible=1;childLayout=tableLayout;fixedRows=1;rowLines=0;fontStyle=1;align=center;resizeLast=1;" vertex="1" parent="1">
          <mxGeometry x="140" y="135" width="180" height="160" as="geometry" />
        </mxCell>
        <mxCell id="BXVl0tAN8-Eb9n-rbbXn-98" value="" style="shape=partialRectangle;collapsible=0;dropTarget=0;pointerEvents=0;fillColor=none;top=0;left=0;bottom=1;right=0;points=[[0,0.5],[1,0.5]];portConstraint=eastwest;" vertex="1" parent="BXVl0tAN8-Eb9n-rbbXn-97">
          <mxGeometry y="30" width="180" height="30" as="geometry" />
        </mxCell>
        <mxCell id="BXVl0tAN8-Eb9n-rbbXn-99" value="PK" style="shape=partialRectangle;connectable=0;fillColor=none;top=0;left=0;bottom=0;right=0;fontStyle=1;overflow=hidden;" vertex="1" parent="BXVl0tAN8-Eb9n-rbbXn-98">
          <mxGeometry width="30" height="30" as="geometry" />
        </mxCell>
        <mxCell id="BXVl0tAN8-Eb9n-rbbXn-100" value="UniqueID" style="shape=partialRectangle;connectable=0;fillColor=none;top=0;left=0;bottom=0;right=0;align=left;spacingLeft=6;fontStyle=5;overflow=hidden;" vertex="1" parent="BXVl0tAN8-Eb9n-rbbXn-98">
          <mxGeometry x="30" width="150" height="30" as="geometry" />
        </mxCell>
        <mxCell id="BXVl0tAN8-Eb9n-rbbXn-101" value="" style="shape=partialRectangle;collapsible=0;dropTarget=0;pointerEvents=0;fillColor=none;top=0;left=0;bottom=0;right=0;points=[[0,0.5],[1,0.5]];portConstraint=eastwest;" vertex="1" parent="BXVl0tAN8-Eb9n-rbbXn-97">
          <mxGeometry y="60" width="180" height="30" as="geometry" />
        </mxCell>
        <mxCell id="BXVl0tAN8-Eb9n-rbbXn-102" value="" style="shape=partialRectangle;connectable=0;fillColor=none;top=0;left=0;bottom=0;right=0;editable=1;overflow=hidden;" vertex="1" parent="BXVl0tAN8-Eb9n-rbbXn-101">
          <mxGeometry width="30" height="30" as="geometry" />
        </mxCell>
        <mxCell id="BXVl0tAN8-Eb9n-rbbXn-103" value="Row 1" style="shape=partialRectangle;connectable=0;fillColor=none;top=0;left=0;bottom=0;right=0;align=left;spacingLeft=6;overflow=hidden;" vertex="1" parent="BXVl0tAN8-Eb9n-rbbXn-101">
          <mxGeometry x="30" width="150" height="30" as="geometry" />
        </mxCell>
        <mxCell id="BXVl0tAN8-Eb9n-rbbXn-104" value="" style="shape=partialRectangle;collapsible=0;dropTarget=0;pointerEvents=0;fillColor=none;top=0;left=0;bottom=0;right=0;points=[[0,0.5],[1,0.5]];portConstraint=eastwest;" vertex="1" parent="BXVl0tAN8-Eb9n-rbbXn-97">
          <mxGeometry y="90" width="180" height="30" as="geometry" />
        </mxCell>
        <mxCell id="BXVl0tAN8-Eb9n-rbbXn-105" value="" style="shape=partialRectangle;connectable=0;fillColor=none;top=0;left=0;bottom=0;right=0;editable=1;overflow=hidden;" vertex="1" parent="BXVl0tAN8-Eb9n-rbbXn-104">
          <mxGeometry width="30" height="30" as="geometry" />
        </mxCell>
        <mxCell id="BXVl0tAN8-Eb9n-rbbXn-106" value="Row 2" style="shape=partialRectangle;connectable=0;fillColor=none;top=0;left=0;bottom=0;right=0;align=left;spacingLeft=6;overflow=hidden;" vertex="1" parent="BXVl0tAN8-Eb9n-rbbXn-104">
          <mxGeometry x="30" width="150" height="30" as="geometry" />
        </mxCell>
        <mxCell id="BXVl0tAN8-Eb9n-rbbXn-107" value="" style="shape=partialRectangle;collapsible=0;dropTarget=0;pointerEvents=0;fillColor=none;top=0;left=0;bottom=0;right=0;points=[[0,0.5],[1,0.5]];portConstraint=eastwest;" vertex="1" parent="BXVl0tAN8-Eb9n-rbbXn-97">
          <mxGeometry y="120" width="180" height="30" as="geometry" />
        </mxCell>
        <mxCell id="BXVl0tAN8-Eb9n-rbbXn-108" value="" style="shape=partialRectangle;connectable=0;fillColor=none;top=0;left=0;bottom=0;right=0;editable=1;overflow=hidden;" vertex="1" parent="BXVl0tAN8-Eb9n-rbbXn-107">
          <mxGeometry width="30" height="30" as="geometry" />
        </mxCell>
        <mxCell id="BXVl0tAN8-Eb9n-rbbXn-109" value="Row 3" style="shape=partialRectangle;connectable=0;fillColor=none;top=0;left=0;bottom=0;right=0;align=left;spacingLeft=6;overflow=hidden;" vertex="1" parent="BXVl0tAN8-Eb9n-rbbXn-107">
          <mxGeometry x="30" width="150" height="30" as="geometry" />
        </mxCell>
        <mxCell id="BXVl0tAN8-Eb9n-rbbXn-111" value="" style="edgeStyle=entityRelationEdgeStyle;fontSize=12;html=1;endArrow=ERmandOne;startArrow=ERmandOne;" edge="1" parent="1" source="BXVl0tAN8-Eb9n-rbbXn-12" target="BXVl0tAN8-Eb9n-rbbXn-97">
          <mxGeometry width="100" height="100" relative="1" as="geometry">
            <mxPoint x="410" y="170" as="sourcePoint" />
            <mxPoint x="510" y="70" as="targetPoint" />
          </mxGeometry>
        </mxCell>
        <mxCell id="BXVl0tAN8-Eb9n-rbbXn-112" value="课程分类" style="shape=table;startSize=30;container=1;collapsible=1;childLayout=tableLayout;fixedRows=1;rowLines=0;fontStyle=1;align=center;resizeLast=1;" vertex="1" parent="1">
          <mxGeometry x="710" y="165" width="180" height="160" as="geometry" />
        </mxCell>
        <mxCell id="BXVl0tAN8-Eb9n-rbbXn-113" value="" style="shape=partialRectangle;collapsible=0;dropTarget=0;pointerEvents=0;fillColor=none;top=0;left=0;bottom=1;right=0;points=[[0,0.5],[1,0.5]];portConstraint=eastwest;" vertex="1" parent="BXVl0tAN8-Eb9n-rbbXn-112">
          <mxGeometry y="30" width="180" height="30" as="geometry" />
        </mxCell>
        <mxCell id="BXVl0tAN8-Eb9n-rbbXn-114" value="PK" style="shape=partialRectangle;connectable=0;fillColor=none;top=0;left=0;bottom=0;right=0;fontStyle=1;overflow=hidden;" vertex="1" parent="BXVl0tAN8-Eb9n-rbbXn-113">
          <mxGeometry width="30" height="30" as="geometry" />
        </mxCell>
        <mxCell id="BXVl0tAN8-Eb9n-rbbXn-115" value="UniqueID" style="shape=partialRectangle;connectable=0;fillColor=none;top=0;left=0;bottom=0;right=0;align=left;spacingLeft=6;fontStyle=5;overflow=hidden;" vertex="1" parent="BXVl0tAN8-Eb9n-rbbXn-113">
          <mxGeometry x="30" width="150" height="30" as="geometry" />
        </mxCell>
        <mxCell id="BXVl0tAN8-Eb9n-rbbXn-116" value="" style="shape=partialRectangle;collapsible=0;dropTarget=0;pointerEvents=0;fillColor=none;top=0;left=0;bottom=0;right=0;points=[[0,0.5],[1,0.5]];portConstraint=eastwest;" vertex="1" parent="BXVl0tAN8-Eb9n-rbbXn-112">
          <mxGeometry y="60" width="180" height="30" as="geometry" />
        </mxCell>
        <mxCell id="BXVl0tAN8-Eb9n-rbbXn-117" value="" style="shape=partialRectangle;connectable=0;fillColor=none;top=0;left=0;bottom=0;right=0;editable=1;overflow=hidden;" vertex="1" parent="BXVl0tAN8-Eb9n-rbbXn-116">
          <mxGeometry width="30" height="30" as="geometry" />
        </mxCell>
        <mxCell id="BXVl0tAN8-Eb9n-rbbXn-118" value="名称" style="shape=partialRectangle;connectable=0;fillColor=none;top=0;left=0;bottom=0;right=0;align=left;spacingLeft=6;overflow=hidden;" vertex="1" parent="BXVl0tAN8-Eb9n-rbbXn-116">
          <mxGeometry x="30" width="150" height="30" as="geometry" />
        </mxCell>
        <mxCell id="BXVl0tAN8-Eb9n-rbbXn-119" value="" style="shape=partialRectangle;collapsible=0;dropTarget=0;pointerEvents=0;fillColor=none;top=0;left=0;bottom=0;right=0;points=[[0,0.5],[1,0.5]];portConstraint=eastwest;" vertex="1" parent="BXVl0tAN8-Eb9n-rbbXn-112">
          <mxGeometry y="90" width="180" height="30" as="geometry" />
        </mxCell>
        <mxCell id="BXVl0tAN8-Eb9n-rbbXn-120" value="" style="shape=partialRectangle;connectable=0;fillColor=none;top=0;left=0;bottom=0;right=0;editable=1;overflow=hidden;" vertex="1" parent="BXVl0tAN8-Eb9n-rbbXn-119">
          <mxGeometry width="30" height="30" as="geometry" />
        </mxCell>
        <mxCell id="BXVl0tAN8-Eb9n-rbbXn-121" value="简介" style="shape=partialRectangle;connectable=0;fillColor=none;top=0;left=0;bottom=0;right=0;align=left;spacingLeft=6;overflow=hidden;" vertex="1" parent="BXVl0tAN8-Eb9n-rbbXn-119">
          <mxGeometry x="30" width="150" height="30" as="geometry" />
        </mxCell>
        <mxCell id="BXVl0tAN8-Eb9n-rbbXn-122" value="" style="shape=partialRectangle;collapsible=0;dropTarget=0;pointerEvents=0;fillColor=none;top=0;left=0;bottom=0;right=0;points=[[0,0.5],[1,0.5]];portConstraint=eastwest;" vertex="1" parent="BXVl0tAN8-Eb9n-rbbXn-112">
          <mxGeometry y="120" width="180" height="30" as="geometry" />
        </mxCell>
        <mxCell id="BXVl0tAN8-Eb9n-rbbXn-123" value="" style="shape=partialRectangle;connectable=0;fillColor=none;top=0;left=0;bottom=0;right=0;editable=1;overflow=hidden;" vertex="1" parent="BXVl0tAN8-Eb9n-rbbXn-122">
          <mxGeometry width="30" height="30" as="geometry" />
        </mxCell>
        <mxCell id="BXVl0tAN8-Eb9n-rbbXn-124" value="归属" style="shape=partialRectangle;connectable=0;fillColor=none;top=0;left=0;bottom=0;right=0;align=left;spacingLeft=6;overflow=hidden;" vertex="1" parent="BXVl0tAN8-Eb9n-rbbXn-122">
          <mxGeometry x="30" width="150" height="30" as="geometry" />
        </mxCell>
        <mxCell id="BXVl0tAN8-Eb9n-rbbXn-125" value="" style="edgeStyle=entityRelationEdgeStyle;fontSize=12;html=1;endArrow=ERzeroToMany;endFill=1;" edge="1" parent="1" source="BXVl0tAN8-Eb9n-rbbXn-15" target="BXVl0tAN8-Eb9n-rbbXn-112">
          <mxGeometry width="100" height="100" relative="1" as="geometry">
            <mxPoint x="560" y="310" as="sourcePoint" />
            <mxPoint x="660" y="210" as="targetPoint" />
          </mxGeometry>
        </mxCell>
        <mxCell id="BXVl0tAN8-Eb9n-rbbXn-126" value="组织机构" style="shape=table;startSize=30;container=1;collapsible=1;childLayout=tableLayout;fixedRows=1;rowLines=0;fontStyle=1;align=center;resizeLast=1;" vertex="1" parent="1">
          <mxGeometry x="710" y="345" width="180" height="160" as="geometry" />
        </mxCell>
        <mxCell id="BXVl0tAN8-Eb9n-rbbXn-127" value="" style="shape=partialRectangle;collapsible=0;dropTarget=0;pointerEvents=0;fillColor=none;top=0;left=0;bottom=1;right=0;points=[[0,0.5],[1,0.5]];portConstraint=eastwest;" vertex="1" parent="BXVl0tAN8-Eb9n-rbbXn-126">
          <mxGeometry y="30" width="180" height="30" as="geometry" />
        </mxCell>
        <mxCell id="BXVl0tAN8-Eb9n-rbbXn-128" value="PK" style="shape=partialRectangle;connectable=0;fillColor=none;top=0;left=0;bottom=0;right=0;fontStyle=1;overflow=hidden;" vertex="1" parent="BXVl0tAN8-Eb9n-rbbXn-127">
          <mxGeometry width="30" height="30" as="geometry" />
        </mxCell>
        <mxCell id="BXVl0tAN8-Eb9n-rbbXn-129" value="UniqueID" style="shape=partialRectangle;connectable=0;fillColor=none;top=0;left=0;bottom=0;right=0;align=left;spacingLeft=6;fontStyle=5;overflow=hidden;" vertex="1" parent="BXVl0tAN8-Eb9n-rbbXn-127">
          <mxGeometry x="30" width="150" height="30" as="geometry" />
        </mxCell>
        <mxCell id="BXVl0tAN8-Eb9n-rbbXn-130" value="" style="shape=partialRectangle;collapsible=0;dropTarget=0;pointerEvents=0;fillColor=none;top=0;left=0;bottom=0;right=0;points=[[0,0.5],[1,0.5]];portConstraint=eastwest;" vertex="1" parent="BXVl0tAN8-Eb9n-rbbXn-126">
          <mxGeometry y="60" width="180" height="30" as="geometry" />
        </mxCell>
        <mxCell id="BXVl0tAN8-Eb9n-rbbXn-131" value="" style="shape=partialRectangle;connectable=0;fillColor=none;top=0;left=0;bottom=0;right=0;editable=1;overflow=hidden;" vertex="1" parent="BXVl0tAN8-Eb9n-rbbXn-130">
          <mxGeometry width="30" height="30" as="geometry" />
        </mxCell>
        <mxCell id="BXVl0tAN8-Eb9n-rbbXn-132" value="Row 1" style="shape=partialRectangle;connectable=0;fillColor=none;top=0;left=0;bottom=0;right=0;align=left;spacingLeft=6;overflow=hidden;" vertex="1" parent="BXVl0tAN8-Eb9n-rbbXn-130">
          <mxGeometry x="30" width="150" height="30" as="geometry" />
        </mxCell>
        <mxCell id="BXVl0tAN8-Eb9n-rbbXn-133" value="" style="shape=partialRectangle;collapsible=0;dropTarget=0;pointerEvents=0;fillColor=none;top=0;left=0;bottom=0;right=0;points=[[0,0.5],[1,0.5]];portConstraint=eastwest;" vertex="1" parent="BXVl0tAN8-Eb9n-rbbXn-126">
          <mxGeometry y="90" width="180" height="30" as="geometry" />
        </mxCell>
        <mxCell id="BXVl0tAN8-Eb9n-rbbXn-134" value="" style="shape=partialRectangle;connectable=0;fillColor=none;top=0;left=0;bottom=0;right=0;editable=1;overflow=hidden;" vertex="1" parent="BXVl0tAN8-Eb9n-rbbXn-133">
          <mxGeometry width="30" height="30" as="geometry" />
        </mxCell>
        <mxCell id="BXVl0tAN8-Eb9n-rbbXn-135" value="Row 2" style="shape=partialRectangle;connectable=0;fillColor=none;top=0;left=0;bottom=0;right=0;align=left;spacingLeft=6;overflow=hidden;" vertex="1" parent="BXVl0tAN8-Eb9n-rbbXn-133">
          <mxGeometry x="30" width="150" height="30" as="geometry" />
        </mxCell>
        <mxCell id="BXVl0tAN8-Eb9n-rbbXn-136" value="" style="shape=partialRectangle;collapsible=0;dropTarget=0;pointerEvents=0;fillColor=none;top=0;left=0;bottom=0;right=0;points=[[0,0.5],[1,0.5]];portConstraint=eastwest;" vertex="1" parent="BXVl0tAN8-Eb9n-rbbXn-126">
          <mxGeometry y="120" width="180" height="30" as="geometry" />
        </mxCell>
        <mxCell id="BXVl0tAN8-Eb9n-rbbXn-137" value="" style="shape=partialRectangle;connectable=0;fillColor=none;top=0;left=0;bottom=0;right=0;editable=1;overflow=hidden;" vertex="1" parent="BXVl0tAN8-Eb9n-rbbXn-136">
          <mxGeometry width="30" height="30" as="geometry" />
        </mxCell>
        <mxCell id="BXVl0tAN8-Eb9n-rbbXn-138" value="Row 3" style="shape=partialRectangle;connectable=0;fillColor=none;top=0;left=0;bottom=0;right=0;align=left;spacingLeft=6;overflow=hidden;" vertex="1" parent="BXVl0tAN8-Eb9n-rbbXn-136">
          <mxGeometry x="30" width="150" height="30" as="geometry" />
        </mxCell>
        <mxCell id="BXVl0tAN8-Eb9n-rbbXn-139" value="" style="edgeStyle=entityRelationEdgeStyle;fontSize=12;html=1;endArrow=ERmandOne;startArrow=ERmandOne;" edge="1" parent="1" source="BXVl0tAN8-Eb9n-rbbXn-43" target="BXVl0tAN8-Eb9n-rbbXn-126">
          <mxGeometry width="100" height="100" relative="1" as="geometry">
            <mxPoint x="540" y="480" as="sourcePoint" />
            <mxPoint x="640" y="380" as="targetPoint" />
          </mxGeometry>
        </mxCell>
        <mxCell id="BXVl0tAN8-Eb9n-rbbXn-144" value="" style="edgeStyle=orthogonalEdgeStyle;fontSize=12;html=1;endArrow=ERmandOne;startArrow=ERmandOne;jumpStyle=arc;noJump=0;shadow=0;sketch=0;" edge="1" parent="1" source="BXVl0tAN8-Eb9n-rbbXn-92" target="BXVl0tAN8-Eb9n-rbbXn-112">
          <mxGeometry width="100" height="100" relative="1" as="geometry">
            <mxPoint x="540" y="640" as="sourcePoint" />
            <mxPoint x="930" y="350" as="targetPoint" />
            <Array as="points">
              <mxPoint x="650" y="750" />
              <mxPoint x="650" y="275" />
            </Array>
          </mxGeometry>
        </mxCell>
        <mxCell id="BXVl0tAN8-Eb9n-rbbXn-173" value="课件" style="shape=table;startSize=30;container=1;collapsible=1;childLayout=tableLayout;fixedRows=1;rowLines=0;fontStyle=1;align=center;resizeLast=1;" vertex="1" parent="1">
          <mxGeometry x="410" y="835" width="180" height="250" as="geometry" />
        </mxCell>
        <mxCell id="BXVl0tAN8-Eb9n-rbbXn-174" value="" style="shape=partialRectangle;collapsible=0;dropTarget=0;pointerEvents=0;fillColor=none;top=0;left=0;bottom=1;right=0;points=[[0,0.5],[1,0.5]];portConstraint=eastwest;" vertex="1" parent="BXVl0tAN8-Eb9n-rbbXn-173">
          <mxGeometry y="30" width="180" height="30" as="geometry" />
        </mxCell>
        <mxCell id="BXVl0tAN8-Eb9n-rbbXn-175" value="PK" style="shape=partialRectangle;connectable=0;fillColor=none;top=0;left=0;bottom=0;right=0;fontStyle=1;overflow=hidden;" vertex="1" parent="BXVl0tAN8-Eb9n-rbbXn-174">
          <mxGeometry width="30" height="30" as="geometry" />
        </mxCell>
        <mxCell id="BXVl0tAN8-Eb9n-rbbXn-176" value="UniqueID" style="shape=partialRectangle;connectable=0;fillColor=none;top=0;left=0;bottom=0;right=0;align=left;spacingLeft=6;fontStyle=5;overflow=hidden;" vertex="1" parent="BXVl0tAN8-Eb9n-rbbXn-174">
          <mxGeometry x="30" width="150" height="30" as="geometry" />
        </mxCell>
        <mxCell id="BXVl0tAN8-Eb9n-rbbXn-177" value="" style="shape=partialRectangle;collapsible=0;dropTarget=0;pointerEvents=0;fillColor=none;top=0;left=0;bottom=0;right=0;points=[[0,0.5],[1,0.5]];portConstraint=eastwest;" vertex="1" parent="BXVl0tAN8-Eb9n-rbbXn-173">
          <mxGeometry y="60" width="180" height="30" as="geometry" />
        </mxCell>
        <mxCell id="BXVl0tAN8-Eb9n-rbbXn-178" value="" style="shape=partialRectangle;connectable=0;fillColor=none;top=0;left=0;bottom=0;right=0;editable=1;overflow=hidden;" vertex="1" parent="BXVl0tAN8-Eb9n-rbbXn-177">
          <mxGeometry width="30" height="30" as="geometry" />
        </mxCell>
        <mxCell id="BXVl0tAN8-Eb9n-rbbXn-179" value="名称" style="shape=partialRectangle;connectable=0;fillColor=none;top=0;left=0;bottom=0;right=0;align=left;spacingLeft=6;overflow=hidden;" vertex="1" parent="BXVl0tAN8-Eb9n-rbbXn-177">
          <mxGeometry x="30" width="150" height="30" as="geometry" />
        </mxCell>
        <mxCell id="BXVl0tAN8-Eb9n-rbbXn-322" value="" style="shape=partialRectangle;collapsible=0;dropTarget=0;pointerEvents=0;fillColor=none;top=0;left=0;bottom=0;right=0;points=[[0,0.5],[1,0.5]];portConstraint=eastwest;" vertex="1" parent="BXVl0tAN8-Eb9n-rbbXn-173">
          <mxGeometry y="90" width="180" height="30" as="geometry" />
        </mxCell>
        <mxCell id="BXVl0tAN8-Eb9n-rbbXn-323" value="" style="shape=partialRectangle;connectable=0;fillColor=none;top=0;left=0;bottom=0;right=0;editable=1;overflow=hidden;" vertex="1" parent="BXVl0tAN8-Eb9n-rbbXn-322">
          <mxGeometry width="30" height="30" as="geometry" />
        </mxCell>
        <mxCell id="BXVl0tAN8-Eb9n-rbbXn-324" value="图" style="shape=partialRectangle;connectable=0;fillColor=none;top=0;left=0;bottom=0;right=0;align=left;spacingLeft=6;overflow=hidden;" vertex="1" parent="BXVl0tAN8-Eb9n-rbbXn-322">
          <mxGeometry x="30" width="150" height="30" as="geometry" />
        </mxCell>
        <mxCell id="BXVl0tAN8-Eb9n-rbbXn-318" value="" style="shape=partialRectangle;collapsible=0;dropTarget=0;pointerEvents=0;fillColor=none;top=0;left=0;bottom=0;right=0;points=[[0,0.5],[1,0.5]];portConstraint=eastwest;" vertex="1" parent="BXVl0tAN8-Eb9n-rbbXn-173">
          <mxGeometry y="120" width="180" height="30" as="geometry" />
        </mxCell>
        <mxCell id="BXVl0tAN8-Eb9n-rbbXn-319" value="" style="shape=partialRectangle;connectable=0;fillColor=none;top=0;left=0;bottom=0;right=0;editable=1;overflow=hidden;" vertex="1" parent="BXVl0tAN8-Eb9n-rbbXn-318">
          <mxGeometry width="30" height="30" as="geometry" />
        </mxCell>
        <mxCell id="BXVl0tAN8-Eb9n-rbbXn-320" value="课件类型" style="shape=partialRectangle;connectable=0;fillColor=none;top=0;left=0;bottom=0;right=0;align=left;spacingLeft=6;overflow=hidden;" vertex="1" parent="BXVl0tAN8-Eb9n-rbbXn-318">
          <mxGeometry x="30" width="150" height="30" as="geometry" />
        </mxCell>
        <mxCell id="BXVl0tAN8-Eb9n-rbbXn-180" value="" style="shape=partialRectangle;collapsible=0;dropTarget=0;pointerEvents=0;fillColor=none;top=0;left=0;bottom=0;right=0;points=[[0,0.5],[1,0.5]];portConstraint=eastwest;" vertex="1" parent="BXVl0tAN8-Eb9n-rbbXn-173">
          <mxGeometry y="150" width="180" height="30" as="geometry" />
        </mxCell>
        <mxCell id="BXVl0tAN8-Eb9n-rbbXn-181" value="" style="shape=partialRectangle;connectable=0;fillColor=none;top=0;left=0;bottom=0;right=0;editable=1;overflow=hidden;" vertex="1" parent="BXVl0tAN8-Eb9n-rbbXn-180">
          <mxGeometry width="30" height="30" as="geometry" />
        </mxCell>
        <mxCell id="BXVl0tAN8-Eb9n-rbbXn-182" value="简介" style="shape=partialRectangle;connectable=0;fillColor=none;top=0;left=0;bottom=0;right=0;align=left;spacingLeft=6;overflow=hidden;" vertex="1" parent="BXVl0tAN8-Eb9n-rbbXn-180">
          <mxGeometry x="30" width="150" height="30" as="geometry" />
        </mxCell>
        <mxCell id="BXVl0tAN8-Eb9n-rbbXn-325" value="" style="shape=partialRectangle;collapsible=0;dropTarget=0;pointerEvents=0;fillColor=none;top=0;left=0;bottom=0;right=0;points=[[0,0.5],[1,0.5]];portConstraint=eastwest;" vertex="1" parent="BXVl0tAN8-Eb9n-rbbXn-173">
          <mxGeometry y="180" width="180" height="30" as="geometry" />
        </mxCell>
        <mxCell id="BXVl0tAN8-Eb9n-rbbXn-326" value="" style="shape=partialRectangle;connectable=0;fillColor=none;top=0;left=0;bottom=0;right=0;editable=1;overflow=hidden;" vertex="1" parent="BXVl0tAN8-Eb9n-rbbXn-325">
          <mxGeometry width="30" height="30" as="geometry" />
        </mxCell>
        <mxCell id="BXVl0tAN8-Eb9n-rbbXn-327" value="适用范围" style="shape=partialRectangle;connectable=0;fillColor=none;top=0;left=0;bottom=0;right=0;align=left;spacingLeft=6;overflow=hidden;" vertex="1" parent="BXVl0tAN8-Eb9n-rbbXn-325">
          <mxGeometry x="30" width="150" height="30" as="geometry" />
        </mxCell>
        <mxCell id="BXVl0tAN8-Eb9n-rbbXn-183" value="" style="shape=partialRectangle;collapsible=0;dropTarget=0;pointerEvents=0;fillColor=none;top=0;left=0;bottom=0;right=0;points=[[0,0.5],[1,0.5]];portConstraint=eastwest;" vertex="1" parent="BXVl0tAN8-Eb9n-rbbXn-173">
          <mxGeometry y="210" width="180" height="30" as="geometry" />
        </mxCell>
        <mxCell id="BXVl0tAN8-Eb9n-rbbXn-184" value="" style="shape=partialRectangle;connectable=0;fillColor=none;top=0;left=0;bottom=0;right=0;editable=1;overflow=hidden;" vertex="1" parent="BXVl0tAN8-Eb9n-rbbXn-183">
          <mxGeometry width="30" height="30" as="geometry" />
        </mxCell>
        <mxCell id="BXVl0tAN8-Eb9n-rbbXn-185" value="链接" style="shape=partialRectangle;connectable=0;fillColor=none;top=0;left=0;bottom=0;right=0;align=left;spacingLeft=6;overflow=hidden;" vertex="1" parent="BXVl0tAN8-Eb9n-rbbXn-183">
          <mxGeometry x="30" width="150" height="30" as="geometry" />
        </mxCell>
        <mxCell id="BXVl0tAN8-Eb9n-rbbXn-186" value="" style="edgeStyle=entityRelationEdgeStyle;fontSize=12;html=1;endArrow=ERzeroToMany;endFill=1;shadow=0;" edge="1" parent="1" source="BXVl0tAN8-Eb9n-rbbXn-170" target="BXVl0tAN8-Eb9n-rbbXn-173">
          <mxGeometry width="100" height="100" relative="1" as="geometry">
            <mxPoint x="450" y="960" as="sourcePoint" />
            <mxPoint x="550" y="860" as="targetPoint" />
          </mxGeometry>
        </mxCell>
        <mxCell id="BXVl0tAN8-Eb9n-rbbXn-194" value="教学资料" style="shape=table;startSize=30;container=1;collapsible=1;childLayout=tableLayout;fixedRows=1;rowLines=0;fontStyle=1;align=center;resizeLast=1;" vertex="1" parent="1">
          <mxGeometry x="140" y="1080" width="180" height="160" as="geometry" />
        </mxCell>
        <mxCell id="BXVl0tAN8-Eb9n-rbbXn-195" value="" style="shape=partialRectangle;collapsible=0;dropTarget=0;pointerEvents=0;fillColor=none;top=0;left=0;bottom=1;right=0;points=[[0,0.5],[1,0.5]];portConstraint=eastwest;" vertex="1" parent="BXVl0tAN8-Eb9n-rbbXn-194">
          <mxGeometry y="30" width="180" height="30" as="geometry" />
        </mxCell>
        <mxCell id="BXVl0tAN8-Eb9n-rbbXn-196" value="PK" style="shape=partialRectangle;connectable=0;fillColor=none;top=0;left=0;bottom=0;right=0;fontStyle=1;overflow=hidden;" vertex="1" parent="BXVl0tAN8-Eb9n-rbbXn-195">
          <mxGeometry width="30" height="30" as="geometry" />
        </mxCell>
        <mxCell id="BXVl0tAN8-Eb9n-rbbXn-197" value="UniqueID" style="shape=partialRectangle;connectable=0;fillColor=none;top=0;left=0;bottom=0;right=0;align=left;spacingLeft=6;fontStyle=5;overflow=hidden;" vertex="1" parent="BXVl0tAN8-Eb9n-rbbXn-195">
          <mxGeometry x="30" width="150" height="30" as="geometry" />
        </mxCell>
        <mxCell id="BXVl0tAN8-Eb9n-rbbXn-198" value="" style="shape=partialRectangle;collapsible=0;dropTarget=0;pointerEvents=0;fillColor=none;top=0;left=0;bottom=0;right=0;points=[[0,0.5],[1,0.5]];portConstraint=eastwest;" vertex="1" parent="BXVl0tAN8-Eb9n-rbbXn-194">
          <mxGeometry y="60" width="180" height="30" as="geometry" />
        </mxCell>
        <mxCell id="BXVl0tAN8-Eb9n-rbbXn-199" value="" style="shape=partialRectangle;connectable=0;fillColor=none;top=0;left=0;bottom=0;right=0;editable=1;overflow=hidden;" vertex="1" parent="BXVl0tAN8-Eb9n-rbbXn-198">
          <mxGeometry width="30" height="30" as="geometry" />
        </mxCell>
        <mxCell id="BXVl0tAN8-Eb9n-rbbXn-200" value="名称" style="shape=partialRectangle;connectable=0;fillColor=none;top=0;left=0;bottom=0;right=0;align=left;spacingLeft=6;overflow=hidden;" vertex="1" parent="BXVl0tAN8-Eb9n-rbbXn-198">
          <mxGeometry x="30" width="150" height="30" as="geometry" />
        </mxCell>
        <mxCell id="BXVl0tAN8-Eb9n-rbbXn-201" value="" style="shape=partialRectangle;collapsible=0;dropTarget=0;pointerEvents=0;fillColor=none;top=0;left=0;bottom=0;right=0;points=[[0,0.5],[1,0.5]];portConstraint=eastwest;" vertex="1" parent="BXVl0tAN8-Eb9n-rbbXn-194">
          <mxGeometry y="90" width="180" height="30" as="geometry" />
        </mxCell>
        <mxCell id="BXVl0tAN8-Eb9n-rbbXn-202" value="" style="shape=partialRectangle;connectable=0;fillColor=none;top=0;left=0;bottom=0;right=0;editable=1;overflow=hidden;" vertex="1" parent="BXVl0tAN8-Eb9n-rbbXn-201">
          <mxGeometry width="30" height="30" as="geometry" />
        </mxCell>
        <mxCell id="BXVl0tAN8-Eb9n-rbbXn-203" value="简介" style="shape=partialRectangle;connectable=0;fillColor=none;top=0;left=0;bottom=0;right=0;align=left;spacingLeft=6;overflow=hidden;" vertex="1" parent="BXVl0tAN8-Eb9n-rbbXn-201">
          <mxGeometry x="30" width="150" height="30" as="geometry" />
        </mxCell>
        <mxCell id="BXVl0tAN8-Eb9n-rbbXn-204" value="" style="shape=partialRectangle;collapsible=0;dropTarget=0;pointerEvents=0;fillColor=none;top=0;left=0;bottom=0;right=0;points=[[0,0.5],[1,0.5]];portConstraint=eastwest;" vertex="1" parent="BXVl0tAN8-Eb9n-rbbXn-194">
          <mxGeometry y="120" width="180" height="30" as="geometry" />
        </mxCell>
        <mxCell id="BXVl0tAN8-Eb9n-rbbXn-205" value="" style="shape=partialRectangle;connectable=0;fillColor=none;top=0;left=0;bottom=0;right=0;editable=1;overflow=hidden;" vertex="1" parent="BXVl0tAN8-Eb9n-rbbXn-204">
          <mxGeometry width="30" height="30" as="geometry" />
        </mxCell>
        <mxCell id="BXVl0tAN8-Eb9n-rbbXn-206" value="链接" style="shape=partialRectangle;connectable=0;fillColor=none;top=0;left=0;bottom=0;right=0;align=left;spacingLeft=6;overflow=hidden;" vertex="1" parent="BXVl0tAN8-Eb9n-rbbXn-204">
          <mxGeometry x="30" width="150" height="30" as="geometry" />
        </mxCell>
        <mxCell id="BXVl0tAN8-Eb9n-rbbXn-207" value="" style="edgeStyle=entityRelationEdgeStyle;fontSize=12;html=1;endArrow=ERzeroToMany;endFill=1;shadow=0;" edge="1" parent="1" source="BXVl0tAN8-Eb9n-rbbXn-191" target="BXVl0tAN8-Eb9n-rbbXn-194">
          <mxGeometry width="100" height="100" relative="1" as="geometry">
            <mxPoint x="450" y="1050" as="sourcePoint" />
            <mxPoint x="400" y="1050" as="targetPoint" />
          </mxGeometry>
        </mxCell>
        <mxCell id="BXVl0tAN8-Eb9n-rbbXn-221" value="教师课程授权" style="shape=table;startSize=30;container=1;collapsible=1;childLayout=tableLayout;fixedRows=1;rowLines=0;fontStyle=1;align=center;resizeLast=1;" vertex="1" parent="1">
          <mxGeometry x="140" y="375" width="180" height="160" as="geometry" />
        </mxCell>
        <mxCell id="BXVl0tAN8-Eb9n-rbbXn-222" value="" style="shape=partialRectangle;collapsible=0;dropTarget=0;pointerEvents=0;fillColor=none;top=0;left=0;bottom=1;right=0;points=[[0,0.5],[1,0.5]];portConstraint=eastwest;" vertex="1" parent="BXVl0tAN8-Eb9n-rbbXn-221">
          <mxGeometry y="30" width="180" height="30" as="geometry" />
        </mxCell>
        <mxCell id="BXVl0tAN8-Eb9n-rbbXn-223" value="PK" style="shape=partialRectangle;connectable=0;fillColor=none;top=0;left=0;bottom=0;right=0;fontStyle=1;overflow=hidden;" vertex="1" parent="BXVl0tAN8-Eb9n-rbbXn-222">
          <mxGeometry width="30" height="30" as="geometry" />
        </mxCell>
        <mxCell id="BXVl0tAN8-Eb9n-rbbXn-224" value="UniqueID" style="shape=partialRectangle;connectable=0;fillColor=none;top=0;left=0;bottom=0;right=0;align=left;spacingLeft=6;fontStyle=5;overflow=hidden;" vertex="1" parent="BXVl0tAN8-Eb9n-rbbXn-222">
          <mxGeometry x="30" width="150" height="30" as="geometry" />
        </mxCell>
        <mxCell id="BXVl0tAN8-Eb9n-rbbXn-225" value="" style="shape=partialRectangle;collapsible=0;dropTarget=0;pointerEvents=0;fillColor=none;top=0;left=0;bottom=0;right=0;points=[[0,0.5],[1,0.5]];portConstraint=eastwest;" vertex="1" parent="BXVl0tAN8-Eb9n-rbbXn-221">
          <mxGeometry y="60" width="180" height="30" as="geometry" />
        </mxCell>
        <mxCell id="BXVl0tAN8-Eb9n-rbbXn-226" value="" style="shape=partialRectangle;connectable=0;fillColor=none;top=0;left=0;bottom=0;right=0;editable=1;overflow=hidden;" vertex="1" parent="BXVl0tAN8-Eb9n-rbbXn-225">
          <mxGeometry width="30" height="30" as="geometry" />
        </mxCell>
        <mxCell id="BXVl0tAN8-Eb9n-rbbXn-227" value="教师" style="shape=partialRectangle;connectable=0;fillColor=none;top=0;left=0;bottom=0;right=0;align=left;spacingLeft=6;overflow=hidden;" vertex="1" parent="BXVl0tAN8-Eb9n-rbbXn-225">
          <mxGeometry x="30" width="150" height="30" as="geometry" />
        </mxCell>
        <mxCell id="BXVl0tAN8-Eb9n-rbbXn-228" value="" style="shape=partialRectangle;collapsible=0;dropTarget=0;pointerEvents=0;fillColor=none;top=0;left=0;bottom=0;right=0;points=[[0,0.5],[1,0.5]];portConstraint=eastwest;" vertex="1" parent="BXVl0tAN8-Eb9n-rbbXn-221">
          <mxGeometry y="90" width="180" height="30" as="geometry" />
        </mxCell>
        <mxCell id="BXVl0tAN8-Eb9n-rbbXn-229" value="" style="shape=partialRectangle;connectable=0;fillColor=none;top=0;left=0;bottom=0;right=0;editable=1;overflow=hidden;" vertex="1" parent="BXVl0tAN8-Eb9n-rbbXn-228">
          <mxGeometry width="30" height="30" as="geometry" />
        </mxCell>
        <mxCell id="BXVl0tAN8-Eb9n-rbbXn-230" value="课程" style="shape=partialRectangle;connectable=0;fillColor=none;top=0;left=0;bottom=0;right=0;align=left;spacingLeft=6;overflow=hidden;" vertex="1" parent="BXVl0tAN8-Eb9n-rbbXn-228">
          <mxGeometry x="30" width="150" height="30" as="geometry" />
        </mxCell>
        <mxCell id="BXVl0tAN8-Eb9n-rbbXn-231" value="" style="shape=partialRectangle;collapsible=0;dropTarget=0;pointerEvents=0;fillColor=none;top=0;left=0;bottom=0;right=0;points=[[0,0.5],[1,0.5]];portConstraint=eastwest;" vertex="1" parent="BXVl0tAN8-Eb9n-rbbXn-221">
          <mxGeometry y="120" width="180" height="30" as="geometry" />
        </mxCell>
        <mxCell id="BXVl0tAN8-Eb9n-rbbXn-232" value="" style="shape=partialRectangle;connectable=0;fillColor=none;top=0;left=0;bottom=0;right=0;editable=1;overflow=hidden;" vertex="1" parent="BXVl0tAN8-Eb9n-rbbXn-231">
          <mxGeometry width="30" height="30" as="geometry" />
        </mxCell>
        <mxCell id="BXVl0tAN8-Eb9n-rbbXn-233" value="" style="shape=partialRectangle;connectable=0;fillColor=none;top=0;left=0;bottom=0;right=0;align=left;spacingLeft=6;overflow=hidden;" vertex="1" parent="BXVl0tAN8-Eb9n-rbbXn-231">
          <mxGeometry x="30" width="150" height="30" as="geometry" />
        </mxCell>
        <mxCell id="BXVl0tAN8-Eb9n-rbbXn-234" value="" style="edgeStyle=entityRelationEdgeStyle;fontSize=12;html=1;endArrow=ERmandOne;startArrow=ERzeroToMany;shadow=0;startFill=1;" edge="1" parent="1" source="BXVl0tAN8-Eb9n-rbbXn-221" target="BXVl0tAN8-Eb9n-rbbXn-141">
          <mxGeometry width="100" height="100" relative="1" as="geometry">
            <mxPoint x="490" y="690" as="sourcePoint" />
            <mxPoint x="590" y="590" as="targetPoint" />
          </mxGeometry>
        </mxCell>
        <mxCell id="BXVl0tAN8-Eb9n-rbbXn-235" value="" style="edgeStyle=entityRelationEdgeStyle;fontSize=12;html=1;endArrow=ERmandOne;startArrow=ERmandOne;shadow=0;jumpStyle=arc;" edge="1" parent="1" source="BXVl0tAN8-Eb9n-rbbXn-228" target="BXVl0tAN8-Eb9n-rbbXn-82">
          <mxGeometry width="100" height="100" relative="1" as="geometry">
            <mxPoint x="490" y="610" as="sourcePoint" />
            <mxPoint x="590" y="510" as="targetPoint" />
          </mxGeometry>
        </mxCell>
        <mxCell id="BXVl0tAN8-Eb9n-rbbXn-236" value="" style="edgeStyle=entityRelationEdgeStyle;fontSize=12;html=1;endArrow=ERmandOne;startArrow=ERmandOne;shadow=0;" edge="1" parent="1" source="BXVl0tAN8-Eb9n-rbbXn-126" target="BXVl0tAN8-Eb9n-rbbXn-122">
          <mxGeometry width="100" height="100" relative="1" as="geometry">
            <mxPoint x="500" y="680" as="sourcePoint" />
            <mxPoint x="600" y="580" as="targetPoint" />
          </mxGeometry>
        </mxCell>
        <mxCell id="BXVl0tAN8-Eb9n-rbbXn-240" value="课表" style="shape=table;startSize=30;container=1;collapsible=1;childLayout=tableLayout;fixedRows=1;rowLines=0;fontStyle=1;align=center;resizeLast=1;" vertex="1" parent="1">
          <mxGeometry x="1050" y="310" width="180" height="280" as="geometry" />
        </mxCell>
        <mxCell id="BXVl0tAN8-Eb9n-rbbXn-241" value="" style="shape=partialRectangle;collapsible=0;dropTarget=0;pointerEvents=0;fillColor=none;top=0;left=0;bottom=1;right=0;points=[[0,0.5],[1,0.5]];portConstraint=eastwest;" vertex="1" parent="BXVl0tAN8-Eb9n-rbbXn-240">
          <mxGeometry y="30" width="180" height="30" as="geometry" />
        </mxCell>
        <mxCell id="BXVl0tAN8-Eb9n-rbbXn-242" value="PK" style="shape=partialRectangle;connectable=0;fillColor=none;top=0;left=0;bottom=0;right=0;fontStyle=1;overflow=hidden;" vertex="1" parent="BXVl0tAN8-Eb9n-rbbXn-241">
          <mxGeometry width="30" height="30" as="geometry" />
        </mxCell>
        <mxCell id="BXVl0tAN8-Eb9n-rbbXn-243" value="UniqueID" style="shape=partialRectangle;connectable=0;fillColor=none;top=0;left=0;bottom=0;right=0;align=left;spacingLeft=6;fontStyle=5;overflow=hidden;" vertex="1" parent="BXVl0tAN8-Eb9n-rbbXn-241">
          <mxGeometry x="30" width="150" height="30" as="geometry" />
        </mxCell>
        <mxCell id="BXVl0tAN8-Eb9n-rbbXn-244" value="" style="shape=partialRectangle;collapsible=0;dropTarget=0;pointerEvents=0;fillColor=none;top=0;left=0;bottom=0;right=0;points=[[0,0.5],[1,0.5]];portConstraint=eastwest;" vertex="1" parent="BXVl0tAN8-Eb9n-rbbXn-240">
          <mxGeometry y="60" width="180" height="30" as="geometry" />
        </mxCell>
        <mxCell id="BXVl0tAN8-Eb9n-rbbXn-245" value="" style="shape=partialRectangle;connectable=0;fillColor=none;top=0;left=0;bottom=0;right=0;editable=1;overflow=hidden;" vertex="1" parent="BXVl0tAN8-Eb9n-rbbXn-244">
          <mxGeometry width="30" height="30" as="geometry" />
        </mxCell>
        <mxCell id="BXVl0tAN8-Eb9n-rbbXn-246" value="门店" style="shape=partialRectangle;connectable=0;fillColor=none;top=0;left=0;bottom=0;right=0;align=left;spacingLeft=6;overflow=hidden;" vertex="1" parent="BXVl0tAN8-Eb9n-rbbXn-244">
          <mxGeometry x="30" width="150" height="30" as="geometry" />
        </mxCell>
        <mxCell id="BXVl0tAN8-Eb9n-rbbXn-247" value="" style="shape=partialRectangle;collapsible=0;dropTarget=0;pointerEvents=0;fillColor=none;top=0;left=0;bottom=0;right=0;points=[[0,0.5],[1,0.5]];portConstraint=eastwest;" vertex="1" parent="BXVl0tAN8-Eb9n-rbbXn-240">
          <mxGeometry y="90" width="180" height="30" as="geometry" />
        </mxCell>
        <mxCell id="BXVl0tAN8-Eb9n-rbbXn-248" value="" style="shape=partialRectangle;connectable=0;fillColor=none;top=0;left=0;bottom=0;right=0;editable=1;overflow=hidden;" vertex="1" parent="BXVl0tAN8-Eb9n-rbbXn-247">
          <mxGeometry width="30" height="30" as="geometry" />
        </mxCell>
        <mxCell id="BXVl0tAN8-Eb9n-rbbXn-249" value="教师" style="shape=partialRectangle;connectable=0;fillColor=none;top=0;left=0;bottom=0;right=0;align=left;spacingLeft=6;overflow=hidden;" vertex="1" parent="BXVl0tAN8-Eb9n-rbbXn-247">
          <mxGeometry x="30" width="150" height="30" as="geometry" />
        </mxCell>
        <mxCell id="BXVl0tAN8-Eb9n-rbbXn-250" value="" style="shape=partialRectangle;collapsible=0;dropTarget=0;pointerEvents=0;fillColor=none;top=0;left=0;bottom=0;right=0;points=[[0,0.5],[1,0.5]];portConstraint=eastwest;" vertex="1" parent="BXVl0tAN8-Eb9n-rbbXn-240">
          <mxGeometry y="120" width="180" height="30" as="geometry" />
        </mxCell>
        <mxCell id="BXVl0tAN8-Eb9n-rbbXn-251" value="" style="shape=partialRectangle;connectable=0;fillColor=none;top=0;left=0;bottom=0;right=0;editable=1;overflow=hidden;" vertex="1" parent="BXVl0tAN8-Eb9n-rbbXn-250">
          <mxGeometry width="30" height="30" as="geometry" />
        </mxCell>
        <mxCell id="BXVl0tAN8-Eb9n-rbbXn-252" value="场地" style="shape=partialRectangle;connectable=0;fillColor=none;top=0;left=0;bottom=0;right=0;align=left;spacingLeft=6;overflow=hidden;" vertex="1" parent="BXVl0tAN8-Eb9n-rbbXn-250">
          <mxGeometry x="30" width="150" height="30" as="geometry" />
        </mxCell>
        <mxCell id="BXVl0tAN8-Eb9n-rbbXn-253" value="" style="shape=partialRectangle;collapsible=0;dropTarget=0;pointerEvents=0;fillColor=none;top=0;left=0;bottom=0;right=0;points=[[0,0.5],[1,0.5]];portConstraint=eastwest;" vertex="1" parent="BXVl0tAN8-Eb9n-rbbXn-240">
          <mxGeometry y="150" width="180" height="30" as="geometry" />
        </mxCell>
        <mxCell id="BXVl0tAN8-Eb9n-rbbXn-254" value="" style="shape=partialRectangle;connectable=0;fillColor=none;top=0;left=0;bottom=0;right=0;editable=1;overflow=hidden;" vertex="1" parent="BXVl0tAN8-Eb9n-rbbXn-253">
          <mxGeometry width="30" height="30" as="geometry" />
        </mxCell>
        <mxCell id="BXVl0tAN8-Eb9n-rbbXn-255" value="课程" style="shape=partialRectangle;connectable=0;fillColor=none;top=0;left=0;bottom=0;right=0;align=left;spacingLeft=6;overflow=hidden;" vertex="1" parent="BXVl0tAN8-Eb9n-rbbXn-253">
          <mxGeometry x="30" width="150" height="30" as="geometry" />
        </mxCell>
        <mxCell id="BXVl0tAN8-Eb9n-rbbXn-256" value="" style="shape=partialRectangle;collapsible=0;dropTarget=0;pointerEvents=0;fillColor=none;top=0;left=0;bottom=0;right=0;points=[[0,0.5],[1,0.5]];portConstraint=eastwest;" vertex="1" parent="BXVl0tAN8-Eb9n-rbbXn-240">
          <mxGeometry y="180" width="180" height="30" as="geometry" />
        </mxCell>
        <mxCell id="BXVl0tAN8-Eb9n-rbbXn-257" value="" style="shape=partialRectangle;connectable=0;fillColor=none;top=0;left=0;bottom=0;right=0;editable=1;overflow=hidden;" vertex="1" parent="BXVl0tAN8-Eb9n-rbbXn-256">
          <mxGeometry width="30" height="30" as="geometry" />
        </mxCell>
        <mxCell id="BXVl0tAN8-Eb9n-rbbXn-258" value="开始时间" style="shape=partialRectangle;connectable=0;fillColor=none;top=0;left=0;bottom=0;right=0;align=left;spacingLeft=6;overflow=hidden;" vertex="1" parent="BXVl0tAN8-Eb9n-rbbXn-256">
          <mxGeometry x="30" width="150" height="30" as="geometry" />
        </mxCell>
        <mxCell id="BXVl0tAN8-Eb9n-rbbXn-259" value="" style="shape=partialRectangle;collapsible=0;dropTarget=0;pointerEvents=0;fillColor=none;top=0;left=0;bottom=0;right=0;points=[[0,0.5],[1,0.5]];portConstraint=eastwest;" vertex="1" parent="BXVl0tAN8-Eb9n-rbbXn-240">
          <mxGeometry y="210" width="180" height="30" as="geometry" />
        </mxCell>
        <mxCell id="BXVl0tAN8-Eb9n-rbbXn-260" value="" style="shape=partialRectangle;connectable=0;fillColor=none;top=0;left=0;bottom=0;right=0;editable=1;overflow=hidden;" vertex="1" parent="BXVl0tAN8-Eb9n-rbbXn-259">
          <mxGeometry width="30" height="30" as="geometry" />
        </mxCell>
        <mxCell id="BXVl0tAN8-Eb9n-rbbXn-261" value="签到人数" style="shape=partialRectangle;connectable=0;fillColor=none;top=0;left=0;bottom=0;right=0;align=left;spacingLeft=6;overflow=hidden;" vertex="1" parent="BXVl0tAN8-Eb9n-rbbXn-259">
          <mxGeometry x="30" width="150" height="30" as="geometry" />
        </mxCell>
        <mxCell id="BXVl0tAN8-Eb9n-rbbXn-262" value="" style="shape=partialRectangle;collapsible=0;dropTarget=0;pointerEvents=0;fillColor=none;top=0;left=0;bottom=0;right=0;points=[[0,0.5],[1,0.5]];portConstraint=eastwest;" vertex="1" parent="BXVl0tAN8-Eb9n-rbbXn-240">
          <mxGeometry y="240" width="180" height="30" as="geometry" />
        </mxCell>
        <mxCell id="BXVl0tAN8-Eb9n-rbbXn-263" value="" style="shape=partialRectangle;connectable=0;fillColor=none;top=0;left=0;bottom=0;right=0;editable=1;overflow=hidden;" vertex="1" parent="BXVl0tAN8-Eb9n-rbbXn-262">
          <mxGeometry width="30" height="30" as="geometry" />
        </mxCell>
        <mxCell id="BXVl0tAN8-Eb9n-rbbXn-264" value="状态（开始/结束）" style="shape=partialRectangle;connectable=0;fillColor=none;top=0;left=0;bottom=0;right=0;align=left;spacingLeft=6;overflow=hidden;" vertex="1" parent="BXVl0tAN8-Eb9n-rbbXn-262">
          <mxGeometry x="30" width="150" height="30" as="geometry" />
        </mxCell>
        <mxCell id="BXVl0tAN8-Eb9n-rbbXn-265" value="出勤表" style="shape=table;startSize=30;container=1;collapsible=1;childLayout=tableLayout;fixedRows=1;rowLines=0;fontStyle=1;align=center;resizeLast=1;" vertex="1" parent="1">
          <mxGeometry x="1340" y="315" width="180" height="310" as="geometry" />
        </mxCell>
        <mxCell id="BXVl0tAN8-Eb9n-rbbXn-266" value="" style="shape=partialRectangle;collapsible=0;dropTarget=0;pointerEvents=0;fillColor=none;top=0;left=0;bottom=1;right=0;points=[[0,0.5],[1,0.5]];portConstraint=eastwest;" vertex="1" parent="BXVl0tAN8-Eb9n-rbbXn-265">
          <mxGeometry y="30" width="180" height="30" as="geometry" />
        </mxCell>
        <mxCell id="BXVl0tAN8-Eb9n-rbbXn-267" value="PK" style="shape=partialRectangle;connectable=0;fillColor=none;top=0;left=0;bottom=0;right=0;fontStyle=1;overflow=hidden;" vertex="1" parent="BXVl0tAN8-Eb9n-rbbXn-266">
          <mxGeometry width="30" height="30" as="geometry" />
        </mxCell>
        <mxCell id="BXVl0tAN8-Eb9n-rbbXn-268" value="UniqueID" style="shape=partialRectangle;connectable=0;fillColor=none;top=0;left=0;bottom=0;right=0;align=left;spacingLeft=6;fontStyle=5;overflow=hidden;" vertex="1" parent="BXVl0tAN8-Eb9n-rbbXn-266">
          <mxGeometry x="30" width="150" height="30" as="geometry" />
        </mxCell>
        <mxCell id="BXVl0tAN8-Eb9n-rbbXn-269" value="" style="shape=partialRectangle;collapsible=0;dropTarget=0;pointerEvents=0;fillColor=none;top=0;left=0;bottom=0;right=0;points=[[0,0.5],[1,0.5]];portConstraint=eastwest;" vertex="1" parent="BXVl0tAN8-Eb9n-rbbXn-265">
          <mxGeometry y="60" width="180" height="30" as="geometry" />
        </mxCell>
        <mxCell id="BXVl0tAN8-Eb9n-rbbXn-270" value="" style="shape=partialRectangle;connectable=0;fillColor=none;top=0;left=0;bottom=0;right=0;editable=1;overflow=hidden;" vertex="1" parent="BXVl0tAN8-Eb9n-rbbXn-269">
          <mxGeometry width="30" height="30" as="geometry" />
        </mxCell>
        <mxCell id="BXVl0tAN8-Eb9n-rbbXn-271" value="课表" style="shape=partialRectangle;connectable=0;fillColor=none;top=0;left=0;bottom=0;right=0;align=left;spacingLeft=6;overflow=hidden;" vertex="1" parent="BXVl0tAN8-Eb9n-rbbXn-269">
          <mxGeometry x="30" width="150" height="30" as="geometry" />
        </mxCell>
        <mxCell id="BXVl0tAN8-Eb9n-rbbXn-272" value="" style="shape=partialRectangle;collapsible=0;dropTarget=0;pointerEvents=0;fillColor=none;top=0;left=0;bottom=0;right=0;points=[[0,0.5],[1,0.5]];portConstraint=eastwest;" vertex="1" parent="BXVl0tAN8-Eb9n-rbbXn-265">
          <mxGeometry y="90" width="180" height="30" as="geometry" />
        </mxCell>
        <mxCell id="BXVl0tAN8-Eb9n-rbbXn-273" value="" style="shape=partialRectangle;connectable=0;fillColor=none;top=0;left=0;bottom=0;right=0;editable=1;overflow=hidden;" vertex="1" parent="BXVl0tAN8-Eb9n-rbbXn-272">
          <mxGeometry width="30" height="30" as="geometry" />
        </mxCell>
        <mxCell id="BXVl0tAN8-Eb9n-rbbXn-274" value="学员" style="shape=partialRectangle;connectable=0;fillColor=none;top=0;left=0;bottom=0;right=0;align=left;spacingLeft=6;overflow=hidden;" vertex="1" parent="BXVl0tAN8-Eb9n-rbbXn-272">
          <mxGeometry x="30" width="150" height="30" as="geometry" />
        </mxCell>
        <mxCell id="BXVl0tAN8-Eb9n-rbbXn-275" value="" style="shape=partialRectangle;collapsible=0;dropTarget=0;pointerEvents=0;fillColor=none;top=0;left=0;bottom=0;right=0;points=[[0,0.5],[1,0.5]];portConstraint=eastwest;" vertex="1" parent="BXVl0tAN8-Eb9n-rbbXn-265">
          <mxGeometry y="120" width="180" height="30" as="geometry" />
        </mxCell>
        <mxCell id="BXVl0tAN8-Eb9n-rbbXn-276" value="" style="shape=partialRectangle;connectable=0;fillColor=none;top=0;left=0;bottom=0;right=0;editable=1;overflow=hidden;" vertex="1" parent="BXVl0tAN8-Eb9n-rbbXn-275">
          <mxGeometry width="30" height="30" as="geometry" />
        </mxCell>
        <mxCell id="BXVl0tAN8-Eb9n-rbbXn-277" value="服务合同" style="shape=partialRectangle;connectable=0;fillColor=none;top=0;left=0;bottom=0;right=0;align=left;spacingLeft=6;overflow=hidden;" vertex="1" parent="BXVl0tAN8-Eb9n-rbbXn-275">
          <mxGeometry x="30" width="150" height="30" as="geometry" />
        </mxCell>
        <mxCell id="BXVl0tAN8-Eb9n-rbbXn-279" value="" style="shape=partialRectangle;collapsible=0;dropTarget=0;pointerEvents=0;fillColor=none;top=0;left=0;bottom=0;right=0;points=[[0,0.5],[1,0.5]];portConstraint=eastwest;" vertex="1" parent="BXVl0tAN8-Eb9n-rbbXn-265">
          <mxGeometry y="150" width="180" height="30" as="geometry" />
        </mxCell>
        <mxCell id="BXVl0tAN8-Eb9n-rbbXn-280" value="" style="shape=partialRectangle;connectable=0;fillColor=none;top=0;left=0;bottom=0;right=0;editable=1;overflow=hidden;" vertex="1" parent="BXVl0tAN8-Eb9n-rbbXn-279">
          <mxGeometry width="30" height="30" as="geometry" />
        </mxCell>
        <mxCell id="BXVl0tAN8-Eb9n-rbbXn-281" value="约课方式" style="shape=partialRectangle;connectable=0;fillColor=none;top=0;left=0;bottom=0;right=0;align=left;spacingLeft=6;overflow=hidden;" vertex="1" parent="BXVl0tAN8-Eb9n-rbbXn-279">
          <mxGeometry x="30" width="150" height="30" as="geometry" />
        </mxCell>
        <mxCell id="BXVl0tAN8-Eb9n-rbbXn-282" value="" style="shape=partialRectangle;collapsible=0;dropTarget=0;pointerEvents=0;fillColor=none;top=0;left=0;bottom=0;right=0;points=[[0,0.5],[1,0.5]];portConstraint=eastwest;" vertex="1" parent="BXVl0tAN8-Eb9n-rbbXn-265">
          <mxGeometry y="180" width="180" height="30" as="geometry" />
        </mxCell>
        <mxCell id="BXVl0tAN8-Eb9n-rbbXn-283" value="" style="shape=partialRectangle;connectable=0;fillColor=none;top=0;left=0;bottom=0;right=0;editable=1;overflow=hidden;" vertex="1" parent="BXVl0tAN8-Eb9n-rbbXn-282">
          <mxGeometry width="30" height="30" as="geometry" />
        </mxCell>
        <mxCell id="BXVl0tAN8-Eb9n-rbbXn-284" value="约课时间" style="shape=partialRectangle;connectable=0;fillColor=none;top=0;left=0;bottom=0;right=0;align=left;spacingLeft=6;overflow=hidden;" vertex="1" parent="BXVl0tAN8-Eb9n-rbbXn-282">
          <mxGeometry x="30" width="150" height="30" as="geometry" />
        </mxCell>
        <mxCell id="BXVl0tAN8-Eb9n-rbbXn-285" value="" style="shape=partialRectangle;collapsible=0;dropTarget=0;pointerEvents=0;fillColor=none;top=0;left=0;bottom=0;right=0;points=[[0,0.5],[1,0.5]];portConstraint=eastwest;" vertex="1" parent="BXVl0tAN8-Eb9n-rbbXn-265">
          <mxGeometry y="210" width="180" height="30" as="geometry" />
        </mxCell>
        <mxCell id="BXVl0tAN8-Eb9n-rbbXn-286" value="" style="shape=partialRectangle;connectable=0;fillColor=none;top=0;left=0;bottom=0;right=0;editable=1;overflow=hidden;" vertex="1" parent="BXVl0tAN8-Eb9n-rbbXn-285">
          <mxGeometry width="30" height="30" as="geometry" />
        </mxCell>
        <mxCell id="BXVl0tAN8-Eb9n-rbbXn-287" value="签到方式" style="shape=partialRectangle;connectable=0;fillColor=none;top=0;left=0;bottom=0;right=0;align=left;spacingLeft=6;overflow=hidden;" vertex="1" parent="BXVl0tAN8-Eb9n-rbbXn-285">
          <mxGeometry x="30" width="150" height="30" as="geometry" />
        </mxCell>
        <mxCell id="BXVl0tAN8-Eb9n-rbbXn-288" value="" style="shape=partialRectangle;collapsible=0;dropTarget=0;pointerEvents=0;fillColor=none;top=0;left=0;bottom=0;right=0;points=[[0,0.5],[1,0.5]];portConstraint=eastwest;" vertex="1" parent="BXVl0tAN8-Eb9n-rbbXn-265">
          <mxGeometry y="240" width="180" height="30" as="geometry" />
        </mxCell>
        <mxCell id="BXVl0tAN8-Eb9n-rbbXn-289" value="" style="shape=partialRectangle;connectable=0;fillColor=none;top=0;left=0;bottom=0;right=0;editable=1;overflow=hidden;" vertex="1" parent="BXVl0tAN8-Eb9n-rbbXn-288">
          <mxGeometry width="30" height="30" as="geometry" />
        </mxCell>
        <mxCell id="BXVl0tAN8-Eb9n-rbbXn-290" value="签到时间" style="shape=partialRectangle;connectable=0;fillColor=none;top=0;left=0;bottom=0;right=0;align=left;spacingLeft=6;overflow=hidden;" vertex="1" parent="BXVl0tAN8-Eb9n-rbbXn-288">
          <mxGeometry x="30" width="150" height="30" as="geometry" />
        </mxCell>
        <mxCell id="BXVl0tAN8-Eb9n-rbbXn-291" value="" style="shape=partialRectangle;collapsible=0;dropTarget=0;pointerEvents=0;fillColor=none;top=0;left=0;bottom=0;right=0;points=[[0,0.5],[1,0.5]];portConstraint=eastwest;" vertex="1" parent="BXVl0tAN8-Eb9n-rbbXn-265">
          <mxGeometry y="270" width="180" height="30" as="geometry" />
        </mxCell>
        <mxCell id="BXVl0tAN8-Eb9n-rbbXn-292" value="" style="shape=partialRectangle;connectable=0;fillColor=none;top=0;left=0;bottom=0;right=0;editable=1;overflow=hidden;" vertex="1" parent="BXVl0tAN8-Eb9n-rbbXn-291">
          <mxGeometry width="30" height="30" as="geometry" />
        </mxCell>
        <mxCell id="BXVl0tAN8-Eb9n-rbbXn-293" value="用户反馈" style="shape=partialRectangle;connectable=0;fillColor=none;top=0;left=0;bottom=0;right=0;align=left;spacingLeft=6;overflow=hidden;" vertex="1" parent="BXVl0tAN8-Eb9n-rbbXn-291">
          <mxGeometry x="30" width="150" height="30" as="geometry" />
        </mxCell>
        <mxCell id="BXVl0tAN8-Eb9n-rbbXn-278" value="" style="edgeStyle=entityRelationEdgeStyle;fontSize=12;html=1;endArrow=ERmandOne;startArrow=ERmandOne;shadow=0;" edge="1" parent="1" source="BXVl0tAN8-Eb9n-rbbXn-240" target="BXVl0tAN8-Eb9n-rbbXn-269">
          <mxGeometry width="100" height="100" relative="1" as="geometry">
            <mxPoint x="900" y="530" as="sourcePoint" />
            <mxPoint x="1000" y="430" as="targetPoint" />
          </mxGeometry>
        </mxCell>
        <mxCell id="BXVl0tAN8-Eb9n-rbbXn-294" value="场地" style="shape=table;startSize=30;container=1;collapsible=1;childLayout=tableLayout;fixedRows=1;rowLines=0;fontStyle=1;align=center;resizeLast=1;" vertex="1" parent="1">
          <mxGeometry x="1040" y="670" width="180" height="250" as="geometry" />
        </mxCell>
        <mxCell id="BXVl0tAN8-Eb9n-rbbXn-295" value="" style="shape=partialRectangle;collapsible=0;dropTarget=0;pointerEvents=0;fillColor=none;top=0;left=0;bottom=1;right=0;points=[[0,0.5],[1,0.5]];portConstraint=eastwest;" vertex="1" parent="BXVl0tAN8-Eb9n-rbbXn-294">
          <mxGeometry y="30" width="180" height="30" as="geometry" />
        </mxCell>
        <mxCell id="BXVl0tAN8-Eb9n-rbbXn-296" value="PK" style="shape=partialRectangle;connectable=0;fillColor=none;top=0;left=0;bottom=0;right=0;fontStyle=1;overflow=hidden;" vertex="1" parent="BXVl0tAN8-Eb9n-rbbXn-295">
          <mxGeometry width="30" height="30" as="geometry" />
        </mxCell>
        <mxCell id="BXVl0tAN8-Eb9n-rbbXn-297" value="UniqueID" style="shape=partialRectangle;connectable=0;fillColor=none;top=0;left=0;bottom=0;right=0;align=left;spacingLeft=6;fontStyle=5;overflow=hidden;" vertex="1" parent="BXVl0tAN8-Eb9n-rbbXn-295">
          <mxGeometry x="30" width="150" height="30" as="geometry" />
        </mxCell>
        <mxCell id="BXVl0tAN8-Eb9n-rbbXn-298" value="" style="shape=partialRectangle;collapsible=0;dropTarget=0;pointerEvents=0;fillColor=none;top=0;left=0;bottom=0;right=0;points=[[0,0.5],[1,0.5]];portConstraint=eastwest;" vertex="1" parent="BXVl0tAN8-Eb9n-rbbXn-294">
          <mxGeometry y="60" width="180" height="30" as="geometry" />
        </mxCell>
        <mxCell id="BXVl0tAN8-Eb9n-rbbXn-299" value="" style="shape=partialRectangle;connectable=0;fillColor=none;top=0;left=0;bottom=0;right=0;editable=1;overflow=hidden;" vertex="1" parent="BXVl0tAN8-Eb9n-rbbXn-298">
          <mxGeometry width="30" height="30" as="geometry" />
        </mxCell>
        <mxCell id="BXVl0tAN8-Eb9n-rbbXn-300" value="名称" style="shape=partialRectangle;connectable=0;fillColor=none;top=0;left=0;bottom=0;right=0;align=left;spacingLeft=6;overflow=hidden;" vertex="1" parent="BXVl0tAN8-Eb9n-rbbXn-298">
          <mxGeometry x="30" width="150" height="30" as="geometry" />
        </mxCell>
        <mxCell id="BXVl0tAN8-Eb9n-rbbXn-301" value="" style="shape=partialRectangle;collapsible=0;dropTarget=0;pointerEvents=0;fillColor=none;top=0;left=0;bottom=0;right=0;points=[[0,0.5],[1,0.5]];portConstraint=eastwest;" vertex="1" parent="BXVl0tAN8-Eb9n-rbbXn-294">
          <mxGeometry y="90" width="180" height="30" as="geometry" />
        </mxCell>
        <mxCell id="BXVl0tAN8-Eb9n-rbbXn-302" value="" style="shape=partialRectangle;connectable=0;fillColor=none;top=0;left=0;bottom=0;right=0;editable=1;overflow=hidden;" vertex="1" parent="BXVl0tAN8-Eb9n-rbbXn-301">
          <mxGeometry width="30" height="30" as="geometry" />
        </mxCell>
        <mxCell id="BXVl0tAN8-Eb9n-rbbXn-303" value="所属门店" style="shape=partialRectangle;connectable=0;fillColor=none;top=0;left=0;bottom=0;right=0;align=left;spacingLeft=6;overflow=hidden;" vertex="1" parent="BXVl0tAN8-Eb9n-rbbXn-301">
          <mxGeometry x="30" width="150" height="30" as="geometry" />
        </mxCell>
        <mxCell id="BXVl0tAN8-Eb9n-rbbXn-304" value="" style="shape=partialRectangle;collapsible=0;dropTarget=0;pointerEvents=0;fillColor=none;top=0;left=0;bottom=0;right=0;points=[[0,0.5],[1,0.5]];portConstraint=eastwest;" vertex="1" parent="BXVl0tAN8-Eb9n-rbbXn-294">
          <mxGeometry y="120" width="180" height="30" as="geometry" />
        </mxCell>
        <mxCell id="BXVl0tAN8-Eb9n-rbbXn-305" value="" style="shape=partialRectangle;connectable=0;fillColor=none;top=0;left=0;bottom=0;right=0;editable=1;overflow=hidden;" vertex="1" parent="BXVl0tAN8-Eb9n-rbbXn-304">
          <mxGeometry width="30" height="30" as="geometry" />
        </mxCell>
        <mxCell id="BXVl0tAN8-Eb9n-rbbXn-306" value="运动容量" style="shape=partialRectangle;connectable=0;fillColor=none;top=0;left=0;bottom=0;right=0;align=left;spacingLeft=6;overflow=hidden;" vertex="1" parent="BXVl0tAN8-Eb9n-rbbXn-304">
          <mxGeometry x="30" width="150" height="30" as="geometry" />
        </mxCell>
        <mxCell id="BXVl0tAN8-Eb9n-rbbXn-308" value="" style="shape=partialRectangle;collapsible=0;dropTarget=0;pointerEvents=0;fillColor=none;top=0;left=0;bottom=0;right=0;points=[[0,0.5],[1,0.5]];portConstraint=eastwest;" vertex="1" parent="BXVl0tAN8-Eb9n-rbbXn-294">
          <mxGeometry y="150" width="180" height="30" as="geometry" />
        </mxCell>
        <mxCell id="BXVl0tAN8-Eb9n-rbbXn-309" value="" style="shape=partialRectangle;connectable=0;fillColor=none;top=0;left=0;bottom=0;right=0;editable=1;overflow=hidden;" vertex="1" parent="BXVl0tAN8-Eb9n-rbbXn-308">
          <mxGeometry width="30" height="30" as="geometry" />
        </mxCell>
        <mxCell id="BXVl0tAN8-Eb9n-rbbXn-310" value="知识容量" style="shape=partialRectangle;connectable=0;fillColor=none;top=0;left=0;bottom=0;right=0;align=left;spacingLeft=6;overflow=hidden;" vertex="1" parent="BXVl0tAN8-Eb9n-rbbXn-308">
          <mxGeometry x="30" width="150" height="30" as="geometry" />
        </mxCell>
        <mxCell id="BXVl0tAN8-Eb9n-rbbXn-311" value="" style="shape=partialRectangle;collapsible=0;dropTarget=0;pointerEvents=0;fillColor=none;top=0;left=0;bottom=0;right=0;points=[[0,0.5],[1,0.5]];portConstraint=eastwest;" vertex="1" parent="BXVl0tAN8-Eb9n-rbbXn-294">
          <mxGeometry y="180" width="180" height="30" as="geometry" />
        </mxCell>
        <mxCell id="BXVl0tAN8-Eb9n-rbbXn-312" value="" style="shape=partialRectangle;connectable=0;fillColor=none;top=0;left=0;bottom=0;right=0;editable=1;overflow=hidden;" vertex="1" parent="BXVl0tAN8-Eb9n-rbbXn-311">
          <mxGeometry width="30" height="30" as="geometry" />
        </mxCell>
        <mxCell id="BXVl0tAN8-Eb9n-rbbXn-313" value="胎教容量" style="shape=partialRectangle;connectable=0;fillColor=none;top=0;left=0;bottom=0;right=0;align=left;spacingLeft=6;overflow=hidden;" vertex="1" parent="BXVl0tAN8-Eb9n-rbbXn-311">
          <mxGeometry x="30" width="150" height="30" as="geometry" />
        </mxCell>
        <mxCell id="BXVl0tAN8-Eb9n-rbbXn-314" value="" style="shape=partialRectangle;collapsible=0;dropTarget=0;pointerEvents=0;fillColor=none;top=0;left=0;bottom=0;right=0;points=[[0,0.5],[1,0.5]];portConstraint=eastwest;" vertex="1" parent="BXVl0tAN8-Eb9n-rbbXn-294">
          <mxGeometry y="210" width="180" height="30" as="geometry" />
        </mxCell>
        <mxCell id="BXVl0tAN8-Eb9n-rbbXn-315" value="" style="shape=partialRectangle;connectable=0;fillColor=none;top=0;left=0;bottom=0;right=0;editable=1;overflow=hidden;" vertex="1" parent="BXVl0tAN8-Eb9n-rbbXn-314">
          <mxGeometry width="30" height="30" as="geometry" />
        </mxCell>
        <mxCell id="BXVl0tAN8-Eb9n-rbbXn-316" value="地址" style="shape=partialRectangle;connectable=0;fillColor=none;top=0;left=0;bottom=0;right=0;align=left;spacingLeft=6;overflow=hidden;" vertex="1" parent="BXVl0tAN8-Eb9n-rbbXn-314">
          <mxGeometry x="30" width="150" height="30" as="geometry" />
        </mxCell>
        <mxCell id="BXVl0tAN8-Eb9n-rbbXn-317" value="" style="edgeStyle=entityRelationEdgeStyle;fontSize=12;html=1;endArrow=ERmandOne;startArrow=ERmandOne;shadow=0;" edge="1" parent="1" source="BXVl0tAN8-Eb9n-rbbXn-294" target="BXVl0tAN8-Eb9n-rbbXn-250">
          <mxGeometry width="100" height="100" relative="1" as="geometry">
            <mxPoint x="1000" y="590" as="sourcePoint" />
            <mxPoint x="1100" y="490" as="targetPoint" />
          </mxGeometry>
        </mxCell>
      </root>
    </mxGraphModel>
  </diagram>
</mxfile>
